<!DOCTYPE svg PUBLIC "-//W3C//DTD SVG 1.1//EN" "https://www.w3.org/Graphics/SVG/1.1/DTD/svg11.dtd"><svg xmlns="http://www.w3.org/2000/svg" class="sc-cyRcrZ zHYHy graph" data-testid="graph" role="img" aria-labelledby="polymath-graph-title" width="1695" height="1235"><title id="polymath-graph-title">Workflow Studio State Machine Graph</title><g transform="translate(12,12)" class="new-look-graph"><g class="nodes"><g class="node-container" transform="translate(1436.5,22)"><g><circle class="sc-knuQbY heuMfl shape" r="22"/><text class="sc-kRRyDe fSGazh label"><tspan xml:space="preserve" text-anchor="middle" alignment-baseline="central">Start</tspan></text></g></g><g class="node-container" transform="translate(1436.5,103.5)"><g class="sc-dkmUuB eTwqxc node state Task" data-testid="graph-RunGlueJob" data-state-id="RunGlueJob" data-state-type="Task"><g class="new-look-state-node "><rect x="-120" y="-24.5" width="240" height="49" rx="3" ry="3"/><g class="handle" transform="translate(-120,-24.5)"><path d="M5,16 L5,34 M8,16 L8,34"/></g><g class="icon" transform="translate(-104,-24)"><rect fill="var(--color-background-container-header-7s2tba, #fafafa)" x="0.0361026108" y="0.0181291967" width="48" height="48"/><line x1="47.5" y1="0.49122807" x2="47.5" y2="47.5" stroke="var(--color-board-placeholder-active-yji408, #d5dbdb)" stroke-linecap="square"/><line x1="0.5" y1="0.49122807" x2="0.5" y2="47.5" stroke="var(--color-board-placeholder-active-yji408, #d5dbdb)" stroke-linecap="square"/><use href="#icon-service-glue" aria-hidden="true"><title>AWS Glue</title></use></g><g class="text-lines" transform="translate(-48,-24.5)"><text transform="translate(0,17)" class="line1"><tspan xml:space="preserve" text-anchor="start">Glue: StartJobRun</tspan></text><text transform="translate(0,35.5)" class="line2 label"><tspan xml:space="preserve" text-anchor="start">RunGlueJob</tspan></text></g></g></g></g><g class="node-container" transform="translate(1359,187.5)"><g class="sc-dkmUuB eTwqxc node state Choice" data-testid="graph-CheckGlueJobStatus" data-state-id="CheckGlueJobStatus" data-state-type="Choice"><g class="new-look-state-node "><rect x="-120" y="-24.5" width="240" height="49" rx="3" ry="3"/><g class="handle" transform="translate(-120,-24.5)"><path d="M5,16 L5,34 M8,16 L8,34"/></g><g class="icon" transform="translate(-104,-24)"><rect fill="var(--color-background-container-header-7s2tba, #fafafa)" x="0.0361026108" y="0.0181291967" width="48" height="48"/><line x1="47.5" y1="0.49122807" x2="47.5" y2="47.5" stroke="var(--color-board-placeholder-active-yji408, #d5dbdb)" stroke-linecap="square"/><line x1="0.5" y1="0.49122807" x2="0.5" y2="47.5" stroke="var(--color-board-placeholder-active-yji408, #d5dbdb)" stroke-linecap="square"/><use href="#icon-flow-choice"/></g><g class="text-lines" transform="translate(-48,-24.5)"><text transform="translate(0,17)" class="line1"><tspan xml:space="preserve" text-anchor="start">Choice state</tspan></text><text transform="translate(0,35.5)" class="line2 label"><tspan xml:space="preserve" text-anchor="start">CheckGlueJobStatus</tspan></text></g></g></g></g><g class="node-container" transform="translate(1551,288)"><g class="sc-dkmUuB eTwqxc node state Task" data-testid="graph-HandleGlueJobFailure" data-state-id="HandleGlueJobFailure" data-state-type="Task"><g class="new-look-state-node "><rect x="-120" y="-24.5" width="240" height="49" rx="3" ry="3"/><g class="handle" transform="translate(-120,-24.5)"><path d="M5,16 L5,34 M8,16 L8,34"/></g><g class="icon" transform="translate(-104,-24)"><rect fill="var(--color-background-container-header-7s2tba, #fafafa)" x="0.0361026108" y="0.0181291967" width="48" height="48"/><line x1="47.5" y1="0.49122807" x2="47.5" y2="47.5" stroke="var(--color-board-placeholder-active-yji408, #d5dbdb)" stroke-linecap="square"/><line x1="0.5" y1="0.49122807" x2="0.5" y2="47.5" stroke="var(--color-board-placeholder-active-yji408, #d5dbdb)" stroke-linecap="square"/><use href="#icon-service-sns" aria-hidden="true"><title>Simple Notification Service</title></use></g><g class="text-lines" transform="translate(-48,-24.5)"><text transform="translate(0,17)" class="line1"><tspan xml:space="preserve" text-anchor="start">SNS: Publish</tspan></text><text transform="translate(0,35.5)" class="line2 label"><tspan xml:space="preserve" text-anchor="start">HandleGlueJobFailure</tspan></text></g></g></g></g><g class="node-container" transform="translate(1210,288)"><g class="sc-dkmUuB eTwqxc node state Pass" data-testid="graph-InitiateArchiveProcess" data-state-id="InitiateArchiveProcess" data-state-type="Pass"><g class="new-look-state-node "><rect x="-120" y="-24.5" width="240" height="49" rx="3" ry="3"/><g class="handle" transform="translate(-120,-24.5)"><path d="M5,16 L5,34 M8,16 L8,34"/></g><g class="icon" transform="translate(-104,-24)"><rect fill="var(--color-background-container-header-7s2tba, #fafafa)" x="0.0361026108" y="0.0181291967" width="48" height="48"/><line x1="47.5" y1="0.49122807" x2="47.5" y2="47.5" stroke="var(--color-board-placeholder-active-yji408, #d5dbdb)" stroke-linecap="square"/><line x1="0.5" y1="0.49122807" x2="0.5" y2="47.5" stroke="var(--color-board-placeholder-active-yji408, #d5dbdb)" stroke-linecap="square"/><use href="#icon-flow-pass"/></g><g class="text-lines" transform="translate(-48,-24.5)"><text transform="translate(0,17)" class="line1"><tspan xml:space="preserve" text-anchor="start">Pass state</tspan></text><text transform="translate(0,35.5)" class="line2 label"><tspan xml:space="preserve" text-anchor="start">InitiateArchiveProcess</tspan></text></g></g></g></g><g class="node-container" transform="translate(1210,372)"><g class="sc-dkmUuB eTwqxc node state Task" data-testid="graph-ArchiveProcessedFiles" data-state-id="ArchiveProcessedFiles" data-state-type="Task"><g class="new-look-state-node "><rect x="-120" y="-24.5" width="240" height="49" rx="3" ry="3"/><g class="handle" transform="translate(-120,-24.5)"><path d="M5,16 L5,34 M8,16 L8,34"/></g><g class="icon" transform="translate(-104,-24)"><rect fill="var(--color-background-container-header-7s2tba, #fafafa)" x="0.0361026108" y="0.0181291967" width="48" height="48"/><line x1="47.5" y1="0.49122807" x2="47.5" y2="47.5" stroke="var(--color-board-placeholder-active-yji408, #d5dbdb)" stroke-linecap="square"/><line x1="0.5" y1="0.49122807" x2="0.5" y2="47.5" stroke="var(--color-board-placeholder-active-yji408, #d5dbdb)" stroke-linecap="square"/><use href="#icon-service-lam" aria-hidden="true"><title>Lambda</title></use></g><g class="text-lines" transform="translate(-48,-24.5)"><text transform="translate(0,17)" class="line1"><tspan xml:space="preserve" text-anchor="start">Lambda: Invoke</tspan></text><text transform="translate(0,35.5)" class="line2 label"><tspan xml:space="preserve" text-anchor="start">ArchiveProcessedFiles</tspan></text></g></g></g></g><g class="node-container" transform="translate(810,456)"><g class="sc-dkmUuB eTwqxc node state Choice" data-testid="graph-CheckArchiveCompletion" data-state-id="CheckArchiveCompletion" data-state-type="Choice"><g class="new-look-state-node "><rect x="-120.5" y="-24.5" width="241" height="49" rx="3" ry="3"/><g class="handle" transform="translate(-120.5,-24.5)"><path d="M5,16 L5,34 M8,16 L8,34"/></g><g class="icon" transform="translate(-104.5,-24)"><rect fill="var(--color-background-container-header-7s2tba, #fafafa)" x="0.0361026108" y="0.0181291967" width="48" height="48"/><line x1="47.5" y1="0.49122807" x2="47.5" y2="47.5" stroke="var(--color-board-placeholder-active-yji408, #d5dbdb)" stroke-linecap="square"/><line x1="0.5" y1="0.49122807" x2="0.5" y2="47.5" stroke="var(--color-board-placeholder-active-yji408, #d5dbdb)" stroke-linecap="square"/><use href="#icon-flow-choice"/></g><g class="text-lines" transform="translate(-48.5,-24.5)"><text transform="translate(0,17)" class="line1"><tspan xml:space="preserve" text-anchor="start">Choice state</tspan></text><text transform="translate(0,35.5)" class="line2 label"><tspan xml:space="preserve" text-anchor="start">CheckArchiveCompletion</tspan></text></g></g></g></g><g class="node-container" transform="translate(1266,1107)"><g class="sc-dkmUuB eTwqxc node state Task" data-testid="graph-HandleArchiveFailure" data-state-id="HandleArchiveFailure" data-state-type="Task"><g class="new-look-state-node "><rect x="-120" y="-24.5" width="240" height="49" rx="3" ry="3"/><g class="handle" transform="translate(-120,-24.5)"><path d="M5,16 L5,34 M8,16 L8,34"/></g><g class="icon" transform="translate(-104,-24)"><rect fill="var(--color-background-container-header-7s2tba, #fafafa)" x="0.0361026108" y="0.0181291967" width="48" height="48"/><line x1="47.5" y1="0.49122807" x2="47.5" y2="47.5" stroke="var(--color-board-placeholder-active-yji408, #d5dbdb)" stroke-linecap="square"/><line x1="0.5" y1="0.49122807" x2="0.5" y2="47.5" stroke="var(--color-board-placeholder-active-yji408, #d5dbdb)" stroke-linecap="square"/><use href="#icon-service-sns" aria-hidden="true"><title>Simple Notification Service</title></use></g><g class="text-lines" transform="translate(-48,-24.5)"><text transform="translate(0,17)" class="line1"><tspan xml:space="preserve" text-anchor="start">SNS: Publish</tspan></text><text transform="translate(0,35.5)" class="line2 label"><tspan xml:space="preserve" text-anchor="start">HandleArchiveFailure</tspan></text></g></g></g></g><g class="node-container" transform="translate(667.25,556.5)"><g class="sc-dkmUuB eTwqxc node state Task" data-testid="graph-RunGlueCrawler" data-state-id="RunGlueCrawler" data-state-type="Task"><g class="new-look-state-node "><rect x="-120" y="-24.5" width="240" height="49" rx="3" ry="3"/><g class="handle" transform="translate(-120,-24.5)"><path d="M5,16 L5,34 M8,16 L8,34"/></g><g class="icon" transform="translate(-104,-24)"><rect fill="var(--color-background-container-header-7s2tba, #fafafa)" x="0.0361026108" y="0.0181291967" width="48" height="48"/><line x1="47.5" y1="0.49122807" x2="47.5" y2="47.5" stroke="var(--color-board-placeholder-active-yji408, #d5dbdb)" stroke-linecap="square"/><line x1="0.5" y1="0.49122807" x2="0.5" y2="47.5" stroke="var(--color-board-placeholder-active-yji408, #d5dbdb)" stroke-linecap="square"/><use href="#icon-service-glue" aria-hidden="true"><title>AWS Glue</title></use></g><g class="text-lines" transform="translate(-48,-24.5)"><text transform="translate(0,17)" class="line1"><tspan xml:space="preserve" text-anchor="start">Glue: StartCrawler</tspan></text><text transform="translate(0,35.5)" class="line2 label"><tspan xml:space="preserve" text-anchor="start">RunGlueCrawler</tspan></text></g></g></g></g><g class="node-container" transform="translate(1105.5,556.5)"><g class="sc-dkmUuB eTwqxc node state Pass" data-testid="graph-ContinueArchiveOperation" data-state-id="ContinueArchiveOperation" data-state-type="Pass"><g class="new-look-state-node "><rect x="-125.5" y="-24.5" width="251" height="49" rx="3" ry="3"/><g class="handle" transform="translate(-125.5,-24.5)"><path d="M5,16 L5,34 M8,16 L8,34"/></g><g class="icon" transform="translate(-109.5,-24)"><rect fill="var(--color-background-container-header-7s2tba, #fafafa)" x="0.0361026108" y="0.0181291967" width="48" height="48"/><line x1="47.5" y1="0.49122807" x2="47.5" y2="47.5" stroke="var(--color-board-placeholder-active-yji408, #d5dbdb)" stroke-linecap="square"/><line x1="0.5" y1="0.49122807" x2="0.5" y2="47.5" stroke="var(--color-board-placeholder-active-yji408, #d5dbdb)" stroke-linecap="square"/><use href="#icon-flow-pass"/></g><g class="text-lines" transform="translate(-53.5,-24.5)"><text transform="translate(0,17)" class="line1"><tspan xml:space="preserve" text-anchor="start">Pass state</tspan></text><text transform="translate(0,35.5)" class="line2 label"><tspan xml:space="preserve" text-anchor="start">ContinueArchiveOperation</tspan></text></g></g></g></g><g class="node-container" transform="translate(416.5,640.5)"><g class="sc-dkmUuB eTwqxc node state Wait" data-testid="graph-WaitForCrawlerToFinish" data-state-id="WaitForCrawlerToFinish" data-state-type="Wait"><g class="new-look-state-node "><rect x="-120" y="-24.5" width="240" height="49" rx="3" ry="3"/><g class="handle" transform="translate(-120,-24.5)"><path d="M5,16 L5,34 M8,16 L8,34"/></g><g class="icon" transform="translate(-104,-24)"><rect fill="var(--color-background-container-header-7s2tba, #fafafa)" x="0.0361026108" y="0.0181291967" width="48" height="48"/><line x1="47.5" y1="0.49122807" x2="47.5" y2="47.5" stroke="var(--color-board-placeholder-active-yji408, #d5dbdb)" stroke-linecap="square"/><line x1="0.5" y1="0.49122807" x2="0.5" y2="47.5" stroke="var(--color-board-placeholder-active-yji408, #d5dbdb)" stroke-linecap="square"/><use href="#icon-flow-wait"/></g><g class="text-lines" transform="translate(-48,-24.5)"><text transform="translate(0,17)" class="line1"><tspan xml:space="preserve" text-anchor="start">Wait state</tspan></text><text transform="translate(0,35.5)" class="line2 label"><tspan xml:space="preserve" text-anchor="start">WaitForCrawlerToFinish</tspan></text></g></g></g></g><g class="node-container" transform="translate(963,924)"><g class="sc-dkmUuB eTwqxc node state Task" data-testid="graph-HandleCrawlerFailure" data-state-id="HandleCrawlerFailure" data-state-type="Task"><g class="new-look-state-node "><rect x="-120" y="-24.5" width="240" height="49" rx="3" ry="3"/><g class="handle" transform="translate(-120,-24.5)"><path d="M5,16 L5,34 M8,16 L8,34"/></g><g class="icon" transform="translate(-104,-24)"><rect fill="var(--color-background-container-header-7s2tba, #fafafa)" x="0.0361026108" y="0.0181291967" width="48" height="48"/><line x1="47.5" y1="0.49122807" x2="47.5" y2="47.5" stroke="var(--color-board-placeholder-active-yji408, #d5dbdb)" stroke-linecap="square"/><line x1="0.5" y1="0.49122807" x2="0.5" y2="47.5" stroke="var(--color-board-placeholder-active-yji408, #d5dbdb)" stroke-linecap="square"/><use href="#icon-service-sns" aria-hidden="true"><title>Simple Notification Service</title></use></g><g class="text-lines" transform="translate(-48,-24.5)"><text transform="translate(0,17)" class="line1"><tspan xml:space="preserve" text-anchor="start">SNS: Publish</tspan></text><text transform="translate(0,35.5)" class="line2 label"><tspan xml:space="preserve" text-anchor="start">HandleCrawlerFailure</tspan></text></g></g></g></g><g class="node-container" transform="translate(416.5,741)"><g class="sc-dkmUuB eTwqxc node state Task" data-testid="graph-CheckCrawlerStatus" data-state-id="CheckCrawlerStatus" data-state-type="Task"><g class="new-look-state-node "><rect x="-120" y="-24.5" width="240" height="49" rx="3" ry="3"/><g class="handle" transform="translate(-120,-24.5)"><path d="M5,16 L5,34 M8,16 L8,34"/></g><g class="icon" transform="translate(-104,-24)"><rect fill="var(--color-background-container-header-7s2tba, #fafafa)" x="0.0361026108" y="0.0181291967" width="48" height="48"/><line x1="47.5" y1="0.49122807" x2="47.5" y2="47.5" stroke="var(--color-board-placeholder-active-yji408, #d5dbdb)" stroke-linecap="square"/><line x1="0.5" y1="0.49122807" x2="0.5" y2="47.5" stroke="var(--color-board-placeholder-active-yji408, #d5dbdb)" stroke-linecap="square"/><use href="#icon-service-glue" aria-hidden="true"><title>AWS Glue</title></use></g><g class="text-lines" transform="translate(-48,-24.5)"><text transform="translate(0,17)" class="line1"><tspan xml:space="preserve" text-anchor="start">Glue: GetCrawler</tspan></text><text transform="translate(0,35.5)" class="line2 label"><tspan xml:space="preserve" text-anchor="start">CheckCrawlerStatus</tspan></text></g></g></g></g><g class="node-container" transform="translate(401.5,924)"><g class="sc-dkmUuB eTwqxc node state container Parallel" data-testid="graph-Parallel Athena Queries" data-state-id="Parallel Athena Queries" data-state-type="Parallel"><g class="new-look-state-node "><g class="bounding-box" transform="translate(0,5)"><rect class="sc-dNsVcS eOJZsw shape" rx="7" ry="7" x="-401.5" y="-107" width="803" height="209"/><g class="content" transform="translate(-401.5,-107)"><g class="branch" transform="translate(20,89)"><g class="branchInsertArea" data-insertion-index="0" data-parent-state-id="Parallel Athena Queries" id="Parallel Athena Queries:0" x="-20" y="0" width="20" height="100"><rect x="-20" y="0" width="20" height="100" stroke="none" fill="none"/><path d="M-10,0 l0,100" stroke="none" fill="none"/></g><g transform=""><g class="nodes"><g class="node-container" transform="translate(120.5,24.5)"><g class="sc-dkmUuB eTwqxc node state Task" data-testid="graph-Run Athena Query 1" data-state-id="Run Athena Query 1" data-state-type="Task"><g class="new-look-state-node "><rect x="-120.5" y="-24.5" width="241" height="49" rx="3" ry="3"/><g class="handle" transform="translate(-120.5,-24.5)"><path d="M5,16 L5,34 M8,16 L8,34"/></g><g class="icon" transform="translate(-104.5,-24)"><rect fill="var(--color-background-container-header-7s2tba, #fafafa)" x="0.0361026108" y="0.0181291967" width="48" height="48"/><line x1="47.5" y1="0.49122807" x2="47.5" y2="47.5" stroke="var(--color-board-placeholder-active-yji408, #d5dbdb)" stroke-linecap="square"/><line x1="0.5" y1="0.49122807" x2="0.5" y2="47.5" stroke="var(--color-board-placeholder-active-yji408, #d5dbdb)" stroke-linecap="square"/><use href="#icon-service-athena" aria-hidden="true"><title>Athena</title></use></g><g class="text-lines" transform="translate(-48.5,-24.5)"><text transform="translate(0,17)" class="line1"><tspan xml:space="preserve" text-anchor="start">Athena: StartQueryExecution</tspan></text><text transform="translate(0,35.5)" class="line2 label"><tspan xml:space="preserve" text-anchor="start">Run Athena Query 1</tspan></text></g></g></g></g><g class="node-container" transform="translate(120.5,92)"><g><circle class="sc-ERObt hxVEpV shape" r="8"/></g></g></g><g class="edges"><g class="sc-ejfMa-d gYPmzl edge"><path id="state-Run Athena Query 1:end:normal" d="M120.5,49L120.5,51.916666666666664C120.5,54.833333333333336,120.5,60.666666666666664,120.5,66.5C120.5,72.33333333333333,120.5,78.16666666666667,120.5,81.08333333333333L120.5,84" marker-end="url(#arrowhead)" fill="none"/></g></g></g><g class="branchInsertArea" data-insertion-index="1" data-parent-state-id="Parallel Athena Queries" id="Parallel Athena Queries:1" x="241" y="0" width="20" height="100"><rect x="241" y="0" width="20" height="100" stroke="none" fill="none"/><path d="M251,0 l0,100" stroke="none" fill="none"/></g></g><g class="branch" transform="translate(281,89)"><g transform=""><g class="nodes"><g class="node-container" transform="translate(120.5,24.5)"><g class="sc-dkmUuB eTwqxc node state Task" data-testid="graph-Run Athena Query 2" data-state-id="Run Athena Query 2" data-state-type="Task"><g class="new-look-state-node "><rect x="-120.5" y="-24.5" width="241" height="49" rx="3" ry="3"/><g class="handle" transform="translate(-120.5,-24.5)"><path d="M5,16 L5,34 M8,16 L8,34"/></g><g class="icon" transform="translate(-104.5,-24)"><rect fill="var(--color-background-container-header-7s2tba, #fafafa)" x="0.0361026108" y="0.0181291967" width="48" height="48"/><line x1="47.5" y1="0.49122807" x2="47.5" y2="47.5" stroke="var(--color-board-placeholder-active-yji408, #d5dbdb)" stroke-linecap="square"/><line x1="0.5" y1="0.49122807" x2="0.5" y2="47.5" stroke="var(--color-board-placeholder-active-yji408, #d5dbdb)" stroke-linecap="square"/><use href="#icon-service-athena" aria-hidden="true"><title>Athena</title></use></g><g class="text-lines" transform="translate(-48.5,-24.5)"><text transform="translate(0,17)" class="line1"><tspan xml:space="preserve" text-anchor="start">Athena: StartQueryExecution</tspan></text><text transform="translate(0,35.5)" class="line2 label"><tspan xml:space="preserve" text-anchor="start">Run Athena Query 2</tspan></text></g></g></g></g><g class="node-container" transform="translate(120.5,92)"><g><circle class="sc-ERObt hxVEpV shape" r="8"/></g></g></g><g class="edges"><g class="sc-ejfMa-d gYPmzl edge"><path id="state-Run Athena Query 2:end:normal" d="M120.5,49L120.5,51.916666666666664C120.5,54.833333333333336,120.5,60.666666666666664,120.5,66.5C120.5,72.33333333333333,120.5,78.16666666666667,120.5,81.08333333333333L120.5,84" marker-end="url(#arrowhead)" fill="none"/></g></g></g><g class="branchInsertArea" data-insertion-index="2" data-parent-state-id="Parallel Athena Queries" id="Parallel Athena Queries:2" x="241" y="0" width="20" height="100"><rect x="241" y="0" width="20" height="100" stroke="none" fill="none"/><path d="M251,0 l0,100" stroke="none" fill="none"/></g></g><g class="branch" transform="translate(542,89)"><g transform=""><g class="nodes"><g class="node-container" transform="translate(120.5,24.5)"><g class="sc-dkmUuB eTwqxc node state Task" data-testid="graph-Run Athena Query 3" data-state-id="Run Athena Query 3" data-state-type="Task"><g class="new-look-state-node "><rect x="-120.5" y="-24.5" width="241" height="49" rx="3" ry="3"/><g class="handle" transform="translate(-120.5,-24.5)"><path d="M5,16 L5,34 M8,16 L8,34"/></g><g class="icon" transform="translate(-104.5,-24)"><rect fill="var(--color-background-container-header-7s2tba, #fafafa)" x="0.0361026108" y="0.0181291967" width="48" height="48"/><line x1="47.5" y1="0.49122807" x2="47.5" y2="47.5" stroke="var(--color-board-placeholder-active-yji408, #d5dbdb)" stroke-linecap="square"/><line x1="0.5" y1="0.49122807" x2="0.5" y2="47.5" stroke="var(--color-board-placeholder-active-yji408, #d5dbdb)" stroke-linecap="square"/><use href="#icon-service-athena" aria-hidden="true"><title>Athena</title></use></g><g class="text-lines" transform="translate(-48.5,-24.5)"><text transform="translate(0,17)" class="line1"><tspan xml:space="preserve" text-anchor="start">Athena: StartQueryExecution</tspan></text><text transform="translate(0,35.5)" class="line2 label"><tspan xml:space="preserve" text-anchor="start">Run Athena Query 3</tspan></text></g></g></g></g><g class="node-container" transform="translate(120.5,92)"><g><circle class="sc-ERObt hxVEpV shape" r="8"/></g></g></g><g class="edges"><g class="sc-ejfMa-d gYPmzl edge"><path id="state-Run Athena Query 3:end:normal" d="M120.5,49L120.5,51.916666666666664C120.5,54.833333333333336,120.5,60.666666666666664,120.5,66.5C120.5,72.33333333333333,120.5,78.16666666666667,120.5,81.08333333333333L120.5,84" marker-end="url(#arrowhead)" fill="none"/></g></g></g><g class="branchInsertArea" data-insertion-index="3" data-parent-state-id="Parallel Athena Queries" id="Parallel Athena Queries:3" x="241" y="0" width="20" height="100"><rect x="241" y="0" width="20" height="100" stroke="none" fill="none"/><path d="M251,0 l0,100" stroke="none" fill="none"/></g></g><g class="sc-ejfMa-d gYPmzl"><path id="Parallel Athena Queries-Run Athena Query 1" class="path starting-connection" d="M401.5,44L401.5,47.75C401.5,51.5,401.5,59,358,62.75C314.5,66.5,227.5,66.5,184,70.25C140.5,74,140.5,81.5,140.5,85.25L140.5,89" fill="none"/></g><g class="sc-ejfMa-d gYPmzl"><path id="Parallel Athena Queries-Run Athena Query 2" class="path starting-connection" d="M401.5,44L401.5,47.75C401.5,51.5,401.5,59,401.5,62.75C401.5,66.5,401.5,66.5,401.5,70.25C401.5,74,401.5,81.5,401.5,85.25L401.5,89" fill="none"/></g><g class="sc-ejfMa-d gYPmzl"><path id="Parallel Athena Queries-Run Athena Query 3" class="path starting-connection" d="M401.5,44L401.5,47.75C401.5,51.5,401.5,59,445,62.75C488.5,66.5,575.5,66.5,619,70.25C662.5,74,662.5,81.5,662.5,85.25L662.5,89" fill="none"/></g></g></g><g class="new-look-state-node "><rect x="-120" y="-107" width="240" height="49" rx="3" ry="3"/><g class="handle" transform="translate(-120,-107)"><path d="M5,16 L5,34 M8,16 L8,34"/></g><g class="icon" transform="translate(-104,-106.5)"><rect fill="var(--color-background-container-header-7s2tba, #fafafa)" x="0.0361026108" y="0.0181291967" width="48" height="48"/><line x1="47.5" y1="0.49122807" x2="47.5" y2="47.5" stroke="var(--color-board-placeholder-active-yji408, #d5dbdb)" stroke-linecap="square"/><line x1="0.5" y1="0.49122807" x2="0.5" y2="47.5" stroke="var(--color-board-placeholder-active-yji408, #d5dbdb)" stroke-linecap="square"/><use href="#icon-flow-parallel"/></g><g class="text-lines" transform="translate(-48,-107)"><text transform="translate(0,17)" class="line1"><tspan xml:space="preserve" text-anchor="start">Parallel state</tspan></text><text transform="translate(0,35.5)" class="line2 label"><tspan xml:space="preserve" text-anchor="start">Parallel Athena Queries</tspan></text></g></g></g></g></g><g class="node-container" transform="translate(386.5,1107)"><g class="sc-dkmUuB eTwqxc node state Task" data-testid="graph-HandleValidationSuccess" data-state-id="HandleValidationSuccess" data-state-type="Task"><g class="new-look-state-node "><rect x="-120" y="-24.5" width="240" height="49" rx="3" ry="3"/><g class="handle" transform="translate(-120,-24.5)"><path d="M5,16 L5,34 M8,16 L8,34"/></g><g class="icon" transform="translate(-104,-24)"><rect fill="var(--color-background-container-header-7s2tba, #fafafa)" x="0.0361026108" y="0.0181291967" width="48" height="48"/><line x1="47.5" y1="0.49122807" x2="47.5" y2="47.5" stroke="var(--color-board-placeholder-active-yji408, #d5dbdb)" stroke-linecap="square"/><line x1="0.5" y1="0.49122807" x2="0.5" y2="47.5" stroke="var(--color-board-placeholder-active-yji408, #d5dbdb)" stroke-linecap="square"/><use href="#icon-service-sns" aria-hidden="true"><title>Simple Notification Service</title></use></g><g class="text-lines" transform="translate(-48,-24.5)"><text transform="translate(0,17)" class="line1"><tspan xml:space="preserve" text-anchor="start">SNS: Publish</tspan></text><text transform="translate(0,35.5)" class="line2 label"><tspan xml:space="preserve" text-anchor="start">HandleValidationSuccess</tspan></text></g></g></g></g><g class="node-container" transform="translate(903,1107)"><g class="sc-dkmUuB eTwqxc node state Task" data-testid="graph-HandleValidationFailure" data-state-id="HandleValidationFailure" data-state-type="Task"><g class="new-look-state-node "><rect x="-120" y="-24.5" width="240" height="49" rx="3" ry="3"/><g class="handle" transform="translate(-120,-24.5)"><path d="M5,16 L5,34 M8,16 L8,34"/></g><g class="icon" transform="translate(-104,-24)"><rect fill="var(--color-background-container-header-7s2tba, #fafafa)" x="0.0361026108" y="0.0181291967" width="48" height="48"/><line x1="47.5" y1="0.49122807" x2="47.5" y2="47.5" stroke="var(--color-board-placeholder-active-yji408, #d5dbdb)" stroke-linecap="square"/><line x1="0.5" y1="0.49122807" x2="0.5" y2="47.5" stroke="var(--color-board-placeholder-active-yji408, #d5dbdb)" stroke-linecap="square"/><use href="#icon-service-sns" aria-hidden="true"><title>Simple Notification Service</title></use></g><g class="text-lines" transform="translate(-48,-24.5)"><text transform="translate(0,17)" class="line1"><tspan xml:space="preserve" text-anchor="start">SNS: Publish</tspan></text><text transform="translate(0,35.5)" class="line2 label"><tspan xml:space="preserve" text-anchor="start">HandleValidationFailure</tspan></text></g></g></g></g><g class="node-container" transform="translate(1111,1188.5)"><g><circle class="sc-knuQbY heuMfl shape" r="22"/><text class="sc-kRRyDe fSGazh label"><tspan xml:space="preserve" text-anchor="middle" alignment-baseline="central">End</tspan></text></g></g></g><g class="edges"><g class="sc-ejfMa-d gYPmzl edge"><path id="state-RunGlueJob:state-CheckGlueJobStatus:normal" d="M1391.2916666666667,128L1385.9097222222224,130.91666666666666C1380.527777777778,133.83333333333334,1369.763888888889,139.66666666666666,1364.3819444444446,145.5C1359,151.33333333333334,1359,157.16666666666666,1359,160.08333333333334L1359,163" marker-end="url(#arrowhead)" fill="none"/></g><g class="sc-ejfMa-d gYPmzl edge"><path id="state-RunGlueJob:state-HandleGlueJobFailure:catch:0" d="M1503.2916666666667,128L1511.2430555555557,130.91666666666666C1519.1944444444446,133.83333333333334,1535.0972222222224,139.66666666666666,1543.0486111111113,149.58333333333334C1551,159.5,1551,173.5,1551,188.875C1551,204.25,1551,221,1551,233.66666666666666C1551,246.33333333333334,1551,254.91666666666666,1551,259.2083333333333L1551,263.5" marker-end="url(#arrowhead)" fill="none"/><g data-testid="graph-RunGlueJob-0" class="edge-label" transform="translate(1543.0486111111113,149.58333333333334)"><rect x="-25" y="-8.25" width="50" height="16.5" class="sc-iEXKAA eiVzL"/><text class="sc-EgOXT IaWrc label"><tspan xml:space="preserve" text-anchor="middle" alignment-baseline="central">Catch #1</tspan><title>Catch #1</title></text></g></g><g class="sc-ejfMa-d gYPmzl edge"><path id="start:state-RunGlueJob" d="M1436.5,44L1436.5,46.916666666666664C1436.5,49.833333333333336,1436.5,55.666666666666664,1436.5,61.5C1436.5,67.33333333333333,1436.5,73.16666666666667,1436.5,76.08333333333333L1436.5,79" marker-end="url(#arrowhead)" fill="none"/></g><g class="sc-ejfMa-d gYPmzl edge"><path id="state-CheckGlueJobStatus:state-InitiateArchiveProcess:choiceRule:0" d="M1286.3532338308457,212L1273.6276948590382,216.29166666666666C1260.9021558872305,220.58333333333334,1235.4510779436152,229.16666666666666,1222.7255389718077,237.75C1210,246.33333333333334,1210,254.91666666666666,1210,259.2083333333333L1210,263.5" marker-end="url(#arrowhead)" fill="none"/><g data-testid="graph-CheckGlueJobStatus-0" class="edge-label" transform="translate(1222.7255389718077,237.75)"><rect x="-78" y="-8.25" width="156" height="16.5" class="sc-iEXKAA eiVzL"/><text class="sc-EgOXT IaWrc label"><tspan xml:space="preserve" text-anchor="middle" alignment-baseline="central">$.JobRunState == "SUCCEEDED"</tspan><title>$.JobRunState == "SUCCEEDED"</title></text></g></g><g class="sc-ejfMa-d gYPmzl edge"><path id="state-CheckGlueJobStatus:state-HandleGlueJobFailure:choiceDefault" d="M1396.7860696517414,212L1403.4050580431178,216.29166666666666C1410.0240464344943,220.58333333333334,1423.2620232172474,229.16666666666666,1439.660033167496,237.75C1456.0580431177448,246.33333333333334,1475.6160862354893,254.91666666666666,1485.3951077943614,259.2083333333333L1495.1741293532339,263.5" marker-end="url(#arrowhead)" fill="none"/><g data-testid="graph-CheckGlueJobStatus-Default" class="edge-label" transform="translate(1439.660033167496,237.75)"><rect x="-22" y="-8.25" width="44" height="16.5" class="sc-iEXKAA eiVzL"/><text class="sc-EgOXT IaWrc label"><tspan xml:space="preserve" text-anchor="middle" alignment-baseline="central">Default</tspan><title>Default</title></text></g></g><g class="sc-ejfMa-d gYPmzl edge"><path id="state-InitiateArchiveProcess:state-ArchiveProcessedFiles:normal" d="M1210,312.5L1210,315.4166666666667C1210,318.3333333333333,1210,324.1666666666667,1210,330C1210,335.8333333333333,1210,341.6666666666667,1210,344.5833333333333L1210,347.5" marker-end="url(#arrowhead)" fill="none"/></g><g class="sc-ejfMa-d gYPmzl edge"><path id="state-ArchiveProcessedFiles:state-CheckArchiveCompletion:normal" d="M1090,384.6L1043.3333333333333,389.5C996.6666666666666,394.40000000000003,903.3333333333334,404.2,856.6666666666666,412.01666666666665C810,419.8333333333333,810,425.6666666666667,810,428.5833333333333L810,431.5" marker-end="url(#arrowhead)" fill="none"/></g><g class="sc-ejfMa-d gYPmzl edge"><path id="state-ArchiveProcessedFiles:state-HandleArchiveFailure:catch:0" d="M1242.6666666666667,396.5L1246.5555555555557,399.4166666666667C1250.4444444444446,402.3333333333333,1258.2222222222224,408.1666666666667,1262.111111111111,418.0833333333333C1266,428,1266,442,1266,457.375C1266,472.75,1266,489.5,1266,506.25C1266,523,1266,539.75,1266,555.125C1266,570.5,1266,584.5,1266,598.5C1266,612.5,1266,626.5,1266,641.875C1266,657.25,1266,674,1266,690.75C1266,707.5,1266,724.25,1266,741C1266,757.75,1266,774.5,1266,805C1266,835.5,1266,879.75,1266,924C1266,968.25,1266,1012.5,1266,1038.9166666666667C1266,1065.3333333333333,1266,1073.9166666666667,1266,1078.2083333333333L1266,1082.5" marker-end="url(#arrowhead)" fill="none"/><g data-testid="graph-ArchiveProcessedFiles-0" class="edge-label" transform="translate(1262.111111111111,418.0833333333333)"><rect x="-25" y="-8.25" width="50" height="16.5" class="sc-iEXKAA eiVzL"/><text class="sc-EgOXT IaWrc label"><tspan xml:space="preserve" text-anchor="middle" alignment-baseline="central">Catch #1</tspan><title>Catch #1</title></text></g></g><g class="sc-ejfMa-d gYPmzl edge"><path id="state-CheckArchiveCompletion:state-RunGlueCrawler:choiceRule:0" d="M740.4004975124378,480.5L728.2087479270316,484.7916666666667C716.0169983416253,489.0833333333333,691.6334991708127,497.6666666666667,679.4417495854063,506.25C667.25,514.8333333333334,667.25,523.4166666666666,667.25,527.7083333333334L667.25,532" marker-end="url(#arrowhead)" fill="none"/><g data-testid="graph-CheckArchiveCompletion-0" class="edge-label" transform="translate(679.4417495854063,506.25)"><rect x="-71.5" y="-8.25" width="143" height="16.5" class="sc-iEXKAA eiVzL"/><text class="sc-EgOXT IaWrc label"><tspan xml:space="preserve" text-anchor="middle" alignment-baseline="central">$.Payload.isComplete == true</tspan><title>$.Payload.isComplete == true</title></text></g></g><g class="sc-ejfMa-d gYPmzl edge"><path id="state-CheckArchiveCompletion:state-ContinueArchiveOperation:choiceDefault" d="M930.5,476.49111675126903L959.6666666666666,481.4509306260575C988.8333333333334,486.410744500846,1047.1666666666667,496.33037225042307,1076.3333333333333,505.5818527918782C1105.5,514.8333333333334,1105.5,523.4166666666666,1105.5,527.7083333333334L1105.5,532" marker-end="url(#arrowhead)" fill="none"/><g data-testid="graph-CheckArchiveCompletion-Default" class="edge-label" transform="translate(1076.3333333333333,505.5818527918782)"><rect x="-22" y="-8.25" width="44" height="16.5" class="sc-iEXKAA eiVzL"/><text class="sc-EgOXT IaWrc label"><tspan xml:space="preserve" text-anchor="middle" alignment-baseline="central">Default</tspan><title>Default</title></text></g></g><g class="sc-ejfMa-d gYPmzl edge"><path id="state-ContinueArchiveOperation:state-ArchiveProcessedFiles:normal" d="M1221.539800995025,532L1241.8665008291875,527.7083333333334C1262.19320066335,523.4166666666666,1302.846600331675,514.8333333333334,1323.1733001658374,502.1666666666667C1343.5,489.5,1343.5,472.75,1343.5,457.375C1343.5,442,1343.5,428,1334.2291666666667,418.0833333333333C1324.9583333333333,408.1666666666667,1306.4166666666667,402.3333333333333,1297.1458333333333,399.4166666666667L1287.875,396.5" marker-end="url(#arrowhead)" fill="none"/></g><g class="sc-ejfMa-d gYPmzl edge"><path id="state-RunGlueCrawler:state-WaitForCrawlerToFinish:normal" d="M547.25,576.599700897308L525.4583333333334,580.2497507477567C503.6666666666667,583.8998005982054,460.0833333333333,591.1999002991028,438.2916666666667,597.7666168162181C416.5,604.3333333333334,416.5,610.1666666666666,416.5,613.0833333333334L416.5,616" marker-end="url(#arrowhead)" fill="none"/></g><g class="sc-ejfMa-d gYPmzl edge"><path id="state-RunGlueCrawler:state-HandleCrawlerFailure:catch:0" d="M787.25,571.5111690245718L823.2083333333334,576.0093075204765C859.1666666666666,580.5074460163812,931.0833333333334,589.5037230081906,967.0416666666666,601.0018615040952C1003,612.5,1003,626.5,1003,641.875C1003,657.25,1003,674,1003,690.75C1003,707.5,1003,724.25,1003,741C1003,757.75,1003,774.5,997.5637162586314,800.9166666666666C992.1274325172631,827.3333333333334,981.2548650345261,863.4166666666666,975.8185812931575,881.4583333333334L970.3822975517891,899.5" marker-end="url(#arrowhead)" fill="none"/><g data-testid="graph-RunGlueCrawler-0" class="edge-label" transform="translate(967.0416666666666,601.0018615040952)"><rect x="-25" y="-8.25" width="50" height="16.5" class="sc-iEXKAA eiVzL"/><text class="sc-EgOXT IaWrc label"><tspan xml:space="preserve" text-anchor="middle" alignment-baseline="central">Catch #1</tspan><title>Catch #1</title></text></g></g><g class="sc-ejfMa-d gYPmzl edge"><path id="state-WaitForCrawlerToFinish:state-CheckCrawlerStatus:normal" d="M416.5,665L416.5,669.2916666666666C416.5,673.5833333333334,416.5,682.1666666666666,416.5,690.75C416.5,699.3333333333334,416.5,707.9166666666666,416.5,712.2083333333334L416.5,716.5" marker-end="url(#arrowhead)" fill="none"/></g><g class="sc-ejfMa-d gYPmzl edge"><path id="state-CheckCrawlerStatus:state-Parallel Athena Queries:normal" d="M409.1865671641791,765.5L407.9054726368159,769.7916666666666C406.6243781094527,774.0833333333334,404.06218905472633,782.6666666666666,402.78109452736317,791.25C401.5,799.8333333333334,401.5,808.4166666666666,401.5,812.7083333333334L401.5,817" marker-end="url(#arrowhead)" fill="none"/></g><g class="sc-ejfMa-d gYPmzl edge"><path id="state-CheckCrawlerStatus:state-HandleCrawlerFailure:catch:0" d="M536.5,762.4781834372217L563.2916666666666,767.2734861976847C590.0833333333334,772.0687889581477,643.6666666666666,781.6593944790739,706.5756434400502,804.4963639062036C769.4846202134337,827.3333333333334,841.7192404268675,863.4166666666666,877.8365505335843,881.4583333333334L913.9538606403013,899.5" marker-end="url(#arrowhead)" fill="none"/><g data-testid="graph-CheckCrawlerStatus-0" class="edge-label" transform="translate(706.5756434400502,804.4963639062036)"><rect x="-25" y="-8.25" width="50" height="16.5" class="sc-iEXKAA eiVzL"/><text class="sc-EgOXT IaWrc label"><tspan xml:space="preserve" text-anchor="middle" alignment-baseline="central">Catch #1</tspan><title>Catch #1</title></text></g></g><g class="sc-ejfMa-d gYPmzl edge"><path id="state-Parallel Athena Queries:state-HandleValidationSuccess:normal" d="M389.409604519774,1031L388.92467043314497,1035.2916666666667C388.439736346516,1039.5833333333333,387.46986817325796,1048.1666666666667,386.984934086629,1056.75C386.5,1065.3333333333333,386.5,1073.9166666666667,386.5,1078.2083333333333L386.5,1082.5" marker-end="url(#arrowhead)" fill="none"/></g><g class="sc-ejfMa-d gYPmzl edge"><path id="state-Parallel Athena Queries:state-HandleValidationFailure:catch:0" d="M579.4303201506591,1031L586.5669334588825,1035.2916666666667C593.7035467671061,1039.5833333333333,607.976773383553,1048.1666666666667,641.9050533584432,1057.2536360937963C675.8333333333334,1066.3406055209261,729.4166666666666,1075.931211041852,756.2083333333334,1080.7265138023151L783,1085.5218165627782" marker-end="url(#arrowhead)" fill="none"/><g data-testid="graph-Parallel Athena Queries-0" class="edge-label" transform="translate(641.9050533584432,1057.2536360937963)"><rect x="-25" y="-8.25" width="50" height="16.5" class="sc-iEXKAA eiVzL"/><text class="sc-EgOXT IaWrc label"><tspan xml:space="preserve" text-anchor="middle" alignment-baseline="central">Catch #1</tspan><title>Catch #1</title></text></g></g><g class="sc-ejfMa-d gYPmzl edge"><path id="state-HandleValidationSuccess:end:normal" d="M386.5,1131.5L386.5,1134.4166666666667C386.5,1137.3333333333333,386.5,1143.1666666666667,503.5887707419068,1152.4670551336167C620.6775414838136,1161.7674436005668,854.855082967627,1174.5348872011336,971.9438537095339,1180.918609001417L1089.0326244514406,1187.3023308017005" marker-end="url(#arrowhead)" fill="none"/></g><g class="sc-ejfMa-d gYPmzl edge"><path id="state-HandleGlueJobFailure:end:normal" d="M1551,312.5L1551,315.4166666666667C1551,318.3333333333333,1551,324.1666666666667,1551,334.0833333333333C1551,344,1551,358,1551,372C1551,386,1551,400,1551,414C1551,428,1551,442,1551,457.375C1551,472.75,1551,489.5,1551,506.25C1551,523,1551,539.75,1551,555.125C1551,570.5,1551,584.5,1551,598.5C1551,612.5,1551,626.5,1551,641.875C1551,657.25,1551,674,1551,690.75C1551,707.5,1551,724.25,1551,741C1551,757.75,1551,774.5,1551,805C1551,835.5,1551,879.75,1551,924C1551,968.25,1551,1012.5,1551,1043C1551,1073.5,1551,1090.25,1551,1105.625C1551,1121,1551,1135,1481.3186469490067,1148.2554851034413C1411.6372938980137,1161.5109702068828,1272.2745877960272,1174.0219404137658,1202.5932347450341,1180.2774255172071L1132.9118816940409,1186.5329106206486" marker-end="url(#arrowhead)" fill="none"/></g><g class="sc-ejfMa-d gYPmzl edge"><path id="state-HandleArchiveFailure:end:normal" d="M1266,1131.5L1266,1134.4166666666667C1266,1137.3333333333333,1266,1143.1666666666667,1243.7197737476693,1151.7611974427982C1221.4395474953387,1160.3557282189297,1176.8790949906775,1171.7114564378596,1154.5988687383467,1177.3893205473244L1132.3186424860162,1183.0671846567893" marker-end="url(#arrowhead)" fill="none"/></g><g class="sc-ejfMa-d gYPmzl edge"><path id="state-HandleCrawlerFailure:state-HandleValidationFailure:normal" d="M963,948.5L963,966.5416666666666C963,984.5833333333334,963,1020.6666666666666,957.8756218905473,1043C952.7512437810946,1065.3333333333333,942.502487562189,1073.9166666666667,937.3781094527363,1078.2083333333333L932.2537313432836,1082.5" marker-end="url(#arrowhead)" fill="none"/></g><g class="sc-ejfMa-d gYPmzl edge"><path id="state-HandleValidationFailure:end:normal" d="M903,1131.5L903,1134.4166666666667C903,1137.3333333333333,903,1143.1666666666667,934.0643801746041,1151.982578606876C965.1287603492083,1160.798490547085,1027.2575206984166,1172.5969810941704,1058.3219008730207,1178.496226367713L1089.3862810476248,1184.3954716412557" marker-end="url(#arrowhead)" fill="none"/></g></g><defs><marker id="arrowhead" markerWidth="8" markerHeight="6" refX="7" refY="3" orient="auto" class="sc-gvZAcH kFuXhN"><polygon points="0 0, 8 3, 0 6"/></marker><marker id="highlighted-arrowhead" markerWidth="6" markerHeight="4" refX="5" refY="2" orient="auto" class="sc-gvZAcH kFuXhN"><polygon points="0 0, 6 2, 0 4"/></marker><marker id="error-arrowhead" markerWidth="6" markerHeight="4" refX="5" refY="2" orient="auto" class="sc-gvZAcH kFuXhN"><polygon points="0 0, 6 2, 0 4"/></marker><marker id="large-arrowhead" markerWidth="10" markerHeight="8" refX="9" refY="4" orient="auto" class="sc-gvZAcH kFuXhN"><polygon points="0 0, 10 4, 0 8"/></marker><marker id="large-highlighted-arrowhead" markerWidth="5.5" markerHeight="4" refX="4.5" refY="2" orient="auto" class="sc-gvZAcH kFuXhN"><polygon points="0 0, 5.5 2, 0 4"/></marker><marker id="large-error-arrowhead" markerWidth="10" markerHeight="8" refX="9" refY="4" orient="auto" class="sc-gvZAcH kFuXhN"><polygon points="0 0, 10 4, 0 8"/></marker><linearGradient x1="0%" y1="100%" x2="100%" y2="0%" id="gradient-orange"><stop stop-color="#C8511B" offset="0%"/><stop stop-color="#FF9900" offset="100%"/></linearGradient><linearGradient x1="0%" y1="100%" x2="100%" y2="0%" id="gradient-turquoise"><stop stop-color="#055F4E" offset="0%"/><stop stop-color="#56C0A7" offset="100%"/></linearGradient><linearGradient x1="0%" y1="100%" x2="100%" y2="0%" id="gradient-blue"><stop stop-color="#2E27AD" offset="0%"/><stop stop-color="#527FFF" offset="100%"/></linearGradient><linearGradient x1="0%" y1="100%" x2="100%" y2="0%" id="gradient-pink"><stop stop-color="#B0084D" offset="0%"/><stop stop-color="#FF4F8B" offset="100%"/></linearGradient><linearGradient x1="0%" y1="100%" x2="100%" y2="0%" id="gradient-red"><stop stop-color="#BD0816" offset="0%"/><stop stop-color="#FF5252" offset="100%"/></linearGradient><linearGradient x1="0%" y1="100%" x2="100%" y2="0%" id="gradient-green"><stop stop-color="#1B660F" offset="0%"/><stop stop-color="#6CAE3E" offset="100%"/></linearGradient><linearGradient x1="0%" y1="100%" x2="100%" y2="0%" id="gradient-purple"><stop stop-color="#4D27A8" offset="0%"/><stop stop-color="#A166FF" offset="100%"/></linearGradient><linearGradient x1="0%" y1="100%" x2="100%" y2="0%" id="gradient-grey"><stop stop-color="#DCDCDC" offset="0%"/><stop stop-color="#F6F5F7" offset="100%"/></linearGradient><linearGradient x1="0%" y1="100%" x2="100%" y2="0%" id="gradient-light-pink"><stop stop-color="#DD344C" offset="0%"/><stop stop-color="#DD344C" offset="100%"/></linearGradient>,<linearGradient x1="0%" y1="100%" x2="100%" y2="0%" id="gradient-ag"><stop stop-color="#BC1356" offset="0%"/><stop stop-color="#F34482" offset="100%"/></linearGradient><linearGradient x1="0%" y1="100%" x2="100%" y2="0%" id="gradient-athena"><stop stop-color="#5930B5" offset="0%"/><stop stop-color="#945DF2" offset="100%"/></linearGradient><linearGradient x1="0%" y1="100%" x2="100%" y2="0%" id="gradient-emr"><stop stop-color="#5930B5" offset="0%"/><stop stop-color="#945DF2" offset="100%"/></linearGradient><linearGradient x1="0%" y1="100%" x2="100%" y2="0%" id="gradient-glue"><stop stop-color="#5930B5" offset="0%"/><stop stop-color="#945DF2" offset="100%"/></linearGradient><linearGradient x1="0%" y1="100%" x2="100%" y2="0%" id="gradient-sns"><stop stop-color="#BC1356" offset="0%"/><stop stop-color="#F34482" offset="100%"/></linearGradient><linearGradient x1="0%" y1="100%" x2="100%" y2="0%" id="gradient-states"><stop stop-color="#BC1356" offset="0%"/><stop stop-color="#F34482" offset="100%"/></linearGradient><linearGradient x1="0%" y1="100%" x2="100%" y2="0%" id="gradient-generic"><stop stop-color="#ccc" offset="0%"/><stop stop-color="#ddd" offset="100%"/></linearGradient><g stroke="none" stroke-width="1" fill="none" fill-rule="evenodd" id="icon-flow-pass"><g transform="translate(10.500000, 8.750000)" fill="#0073BB" fill-rule="nonzero"><path d="M13.8217363,31.2803301 L13.7368454,31.3532508 L13.7368454,31.3532508 L13.6534426,31.407053 L13.6534426,31.407053 L13.6052878,31.4313839 L13.6052878,31.4313839 L13.5081671,31.4681458 L13.5081671,31.4681458 L13.4513711,31.4828395 L13.4513711,31.4828395 L13.3846755,31.4942127 L13.3846755,31.4942127 L13.3412428,31.498357 L13.3412428,31.498357 L13.241495,31.498357 L13.241495,31.498357 L13.1802045,31.4917588 L13.1802045,31.4917588 L13.1314644,31.4828361 L13.1314644,31.4828361 L13.0652921,31.4652652 L12.9776235,31.4314294 L12.9776235,31.4314294 L12.9293782,31.4070608 L12.9293782,31.4070608 L12.8294824,31.3409596 L12.7610762,31.2803301 L12.7610762,31.2803301 L8.26107616,26.7803301 C7.96818295,26.4874369 7.96818295,26.0125631 8.26107616,25.7196699 C8.52734273,25.4534034 8.94400641,25.4291973 9.2376179,25.6470518 L9.32173634,25.7196699 L12.5814063,28.979 L12.581,19.7495522 L3.5,19.75 C1.6314366,19.75 0.104873551,18.2857224 0.00517886273,16.4420352 L0,16.25 L0,12.25 C0,10.3814366 1.4642776,8.85487355 3.3079648,8.75517886 L3.5,8.75 L11.686,8.74955216 L11.686,10.2495522 L3.5,10.25 C2.4456382,10.25 1.58183488,11.0658778 1.50548574,12.1007377 L1.5,12.25 L1.5,16.25 C1.5,17.3043618 2.31587779,18.1681651 3.35073766,18.2445143 L3.5,18.25 L22.5,18.25 C23.5543618,18.25 24.4181651,17.4341222 24.4945143,16.3992623 L24.5,16.25 L24.5,12.25 C24.5,11.1956382 23.6841222,10.3318349 22.6492623,10.2554857 L22.5,10.25 L15.686,10.2495522 L15.686,8.74955216 L22.5,8.75 C24.3685634,8.75 25.8951264,10.2142776 25.9948211,12.0579648 L26,12.25 L26,16.25 C26,18.1185634 24.5357224,19.6451264 22.6920352,19.7448211 L22.5,19.75 L14.081,19.7495522 L14.0814063,28.899 L17.2610762,25.7196699 L17.3451946,25.6470518 C17.6388061,25.4291973 18.0554698,25.4534034 18.3217363,25.7196699 C18.5880029,25.9859365 18.6122089,26.4026002 18.3943545,26.6962117 L18.3217363,26.7803301 L13.8217363,31.2803301 Z" fill="false"/><polygon points="14.0818291 0 14.0818291 14.5 12.5818291 14.5 12.5818291 0" fill="false"/></g></g><g stroke-width="1" fill="none" fill-rule="evenodd" id="icon-flow-wait"><path d="M26.75,8.85825893 L26.75,10.3582589 L25,10.3582589 L25.0010332,13.2887186 C27.2395643,13.4625704 29.3159269,14.2145278 31.0809903,15.3954598 L32.3188424,13.6912711 L34.7458934,15.4546269 L33.3682881,17.3513419 C35.4674483,19.6240431 36.75,22.6622436 36.75,26 C36.75,33.0416306 31.0416306,38.75 24,38.75 C16.9583694,38.75 11.25,33.0416306 11.25,26 C11.25,22.7657627 12.4542298,19.8127884 14.4387685,17.5649977 L12.9047966,15.4546269 L15.3318476,13.6912711 L16.6858812,15.555197 C18.2387522,14.4657629 20.0456704,13.7138336 22.0001068,13.4059384 L22,10.3582589 L20.25,10.3582589 L20.25,8.85825893 L26.75,8.85825893 Z M24,14.75 C17.7867966,14.75 12.75,19.7867966 12.75,26 C12.75,32.2132034 17.7867966,37.25 24,37.25 C30.2132034,37.25 35.25,32.2132034 35.25,26 C35.25,19.7867966 30.2132034,14.75 24,14.75 Z M24.4666648,19.3452148 L24.466,26.499 L30.9387207,26.4993034 L30.9387207,27.9993034 L23.7166648,27.9993034 C23.336969,27.9993034 23.0231738,27.7171495 22.9735114,27.3510739 L22.9666648,27.2493034 L22.9666648,19.3452148 L24.4666648,19.3452148 Z" fill-rule="nonzero" fill="#0073BB"/></g><g stroke="none" stroke-width="1" fill="none" fill-rule="evenodd" id="icon-flow-choice"><g transform="translate(9.252020, 8.729185)" fill="#0073BB" fill-rule="nonzero"><path d="M13.7176503,0.219669914 C13.9839168,-0.0465966484 14.4005805,-0.0708026996 14.694192,0.147051761 L14.7783104,0.219669914 L26.7991257,12.2404852 C27.0653923,12.5067518 27.0895983,12.9234154 26.8717439,13.2170269 L26.7991257,13.3011454 L19.848,20.251 L27.063,27.58 L27.0635443,24.4725437 C27.0635443,24.0583302 27.3993308,23.7225437 27.8135443,23.7225437 C28.1901021,23.7225437 28.5018441,24.0000532 28.5554124,24.3617142 L28.5635443,24.4725437 L28.5635443,29.4222912 C28.5635443,29.4735748 28.5583971,29.5236562 28.5485912,29.5720469 L28.5290567,29.6477745 L28.4912259,29.7440224 L28.4674556,29.7898473 L28.4399848,29.8348433 L28.3922808,29.8993609 L28.3266417,29.9693147 L28.2903734,30.0012261 L28.2103598,30.0588356 L28.1372883,30.0990133 L28.0408973,30.1372113 L27.9243738,30.1641593 C27.8841362,30.1698129 27.8491297,30.1722912 27.8135443,30.1722912 L22.8637969,30.1722912 C22.4495833,30.1722912 22.1137969,29.8365048 22.1137969,29.4222912 C22.1137969,29.0457334 22.3913063,28.7339914 22.7529674,28.6804231 L22.8637969,28.6722912 L26.032,28.672 L18.787,21.312 L14.7783104,25.3219606 C14.5120439,25.5882272 14.0953802,25.6124333 13.8017687,25.3945788 L13.7176503,25.3219606 L9.63,21.234 L2.386,28.671 L5.69974747,28.6722912 L5.81057697,28.6804231 C6.17223802,28.7339914 6.44974747,29.0457334 6.44974747,29.4222912 C6.44974747,29.801987 6.16759359,30.1157822 5.80151803,30.1654446 L5.69974747,30.1722912 L0.75,30.1722912 L0.645175107,30.1650238 L0.571316134,30.150876 L0.491748953,30.1266437 L0.399838514,30.0857012 L0.323957521,30.0396165 L0.243169757,29.975129 L0.170912131,29.8989347 L0.109961584,29.8134582 L0.0656949991,29.7297074 L0.0297396696,29.6320944 L0.0076057584,29.5294944 L6.67910172e-13,29.4222912 L6.67910172e-13,24.4725437 L0.00813192572,24.3617142 C0.0617002376,24.0000532 0.373442216,23.7225437 0.75,23.7225437 C1.12969577,23.7225437 1.44349096,24.0046976 1.49315338,24.3707732 L1.5,24.4725437 L1.499,27.433 L8.569,20.174 L1.69683498,13.3011454 C1.43056842,13.0348788 1.40636237,12.6182151 1.62421683,12.3246036 L1.69683498,12.2404852 L13.7176503,0.219669914 Z M14.3527697,23.728356 L25.2081355,12.7708153 L14.2479803,1.81066017 L3.28782524,12.7708153 L9.616,19.099 L14.3527697,23.728356 Z" fill="false"/><path d="M15.2319803,14.0468153 L15.2319803,13.2668153 C16.0033137,12.8508153 16.5579803,12.4218153 16.8959803,11.9798153 C17.2339803,11.5378153 17.4029803,11.0178153 17.4029803,10.4198153 C17.4029803,9.65714861 17.151647,9.06131528 16.6489803,8.63231528 C16.1463137,8.20331528 15.448647,7.98881528 14.5559803,7.98881528 C13.6979803,7.98881528 12.874647,8.19248195 12.0859803,8.59981528 L12.0859803,8.59981528 L12.0859803,10.3288153 C12.8313137,9.98214861 13.4943137,9.80881528 14.0749803,9.80881528 C14.395647,9.80881528 14.6404803,9.87814861 14.8094803,10.0168153 C14.9784803,10.1554819 15.0629803,10.3591486 15.0629803,10.6278153 C15.0629803,10.9138153 14.9763137,11.1651486 14.8029803,11.3818153 C14.629647,11.5984819 14.343647,11.8151486 13.9449803,12.0318153 L13.9449803,12.0318153 L13.1909803,12.4348153 L13.3339803,14.0468153 L15.2319803,14.0468153 Z M14.3089803,17.4398153 C14.7249803,17.4398153 15.0608137,17.3141486 15.3164803,17.0628153 C15.572147,16.8114819 15.6999803,16.4821486 15.6999803,16.0748153 C15.6999803,15.6674819 15.572147,15.3381486 15.3164803,15.0868153 C15.0608137,14.8354819 14.7249803,14.7098153 14.3089803,14.7098153 C13.8929803,14.7098153 13.557147,14.8354819 13.3014803,15.0868153 C13.0458137,15.3381486 12.9179803,15.6674819 12.9179803,16.0748153 C12.9179803,16.4821486 13.0458137,16.8114819 13.3014803,17.0628153 C13.557147,17.3141486 13.8929803,17.4398153 14.3089803,17.4398153 Z" fill="false"/></g></g><g stroke="none" stroke-width="1" fill="none" fill-rule="evenodd" id="icon-flow-parallel"><g transform="translate(7.794758, 8.750000)" fill="#0073BB" fill-rule="nonzero"><path d="M16.199562,30.9615157 L16.1088907,30.9567289 L16.0428411,30.9462621 L15.9289205,30.9134016 L15.8581395,30.8824655 L15.747534,30.8144639 L15.6634156,30.7418457 L12.1634156,27.2418457 C11.8705224,26.9489525 11.8705224,26.4740788 12.1634156,26.1811856 C12.4296821,25.914919 12.8463458,25.890713 13.1399573,26.1085674 L13.2240758,26.1811856 L15.455,28.412 L15.455,12.999 L4.95524179,12.999 L4.955,28.446 L7.21966991,26.1811856 L7.30378835,26.1085674 C7.59739984,25.890713 8.01406352,25.914919 8.28033009,26.1811856 C8.54659665,26.4474521 8.5708027,26.8641158 8.35294824,27.1577273 L8.28033009,27.2418457 L4.78033009,30.7418457 L4.69621165,30.8144639 L4.689,30.818 C4.66089447,30.8406686 4.6237969,30.8633711 4.58539483,30.8825712 L4.50825575,30.9158403 L4.44163507,30.9367462 L4.36774058,30.9522701 L4.27779844,30.9610057 L4.22212648,30.9610007 L4.09909543,30.9462621 L3.99176083,30.9158467 L3.9143938,30.8824655 L3.82554184,30.8300094 L3.80378835,30.8144639 L3.71966991,30.7418457 L0.219669914,27.2418457 C-0.0732233047,26.9489525 -0.0732233047,26.4740788 0.219669914,26.1811856 C0.485936477,25.914919 0.902600159,25.890713 1.19621165,26.1085674 L1.28033009,26.1811856 L3.455,28.356 L3.45524179,12.25 C3.45524179,11.8703042 3.73739568,11.556509 4.10347124,11.5068466 L4.20524179,11.5 L15.455,11.502 L15.4552418,-1.42108547e-13 L16.9552418,-1.42108547e-13 L16.955,11.495 L28.1555171,11.5 C28.5351143,11.5001394 28.8487603,11.7822674 28.8983985,12.1482549 L28.9052418,12.25 L28.905,28.44 L31.1641955,26.1811856 L31.2483139,26.1085674 C31.5419254,25.890713 31.9585891,25.914919 32.2248557,26.1811856 C32.4911222,26.4474521 32.5153283,26.8641158 32.2974738,27.1577273 L32.2248557,27.2418457 L28.7248557,30.7418457 C28.6845386,30.7821628 28.6407734,30.8169302 28.5945094,30.8461478 L28.5328469,30.8811 L28.4268027,30.9248089 L28.3112733,30.9524264 L28.1887092,30.9615157 L28.1087231,30.9566189 L28.0352714,30.9445058 L27.9277401,30.9126603 L27.8920604,30.8980433 L27.8568141,30.8814079 C27.8351606,30.8704626 27.8145136,30.8587698 27.7943421,30.8460217 C27.7482777,30.8169302 27.7045126,30.7821628 27.6641955,30.7418457 L24.1641955,27.2418457 C23.8713023,26.9489525 23.8713023,26.4740788 24.1641955,26.1811856 C24.4304621,25.914919 24.8471258,25.890713 25.1407372,26.1085674 L25.2248557,26.1811856 L27.405,28.362 L27.4052418,12.999 L16.955,12.992 L16.955,28.389 L19.1634156,26.1811856 L19.247534,26.1085674 C19.5411455,25.890713 19.9578092,25.914919 20.2240758,26.1811856 C20.4903423,26.4474521 20.5145484,26.8641158 20.2966939,27.1577273 L20.2240758,27.2418457 L16.7240758,30.7418457 L16.6399573,30.8144639 L16.636,30.816 L16.589136,30.8490255 L16.5330413,30.8806066 L16.4260228,30.9248089 L16.3532729,30.9444467 L16.2795333,30.9566255 L16.199562,30.9615157 Z" fill="false"/></g></g><g stroke="none" stroke-width="1" fill="none" fill-rule="evenodd" id="icon-service-athena"><polygon fill="url(#gradient-athena)" fill-rule="nonzero" points="0 0 48 0 48 48 0 48"/><g transform="translate(8.571429, 8.571429)" fill="#FFFFFF"><path d="M29.7196639,25.6658824 L26.9485714,22.8766387 C29.917052,18.422567 30.1945049,12.6966034 27.6705663,7.97639531 C25.1466276,3.25618721 20.2306095,0.307220264 14.8779832,0.302521008 C9.30647215,0.332461013 4.23817971,3.53212873 1.81512605,8.5492437 L2.90420168,9.06957983 C5.59326844,3.47261621 11.7949278,0.478447704 17.850165,1.85365099 C23.9054022,3.22885428 28.2053894,8.60804888 28.2131092,14.817479 C28.2200348,17.3654662 27.4864287,19.8605678 26.1015126,21.9993277 L23.8084034,19.7001681 C25.4337348,16.3959855 25.1069659,12.4651834 22.9583593,9.47472959 C20.8097526,6.4842758 17.1886625,4.92040554 13.5385939,5.40653729 C9.88852539,5.89266904 6.8029641,8.34975983 5.51193277,11.7983193 L1.51260504,11.7983193 L1.51260504,13.0084034 L5.17310924,13.0084034 C5.03983188,13.6047593 4.96485726,14.2126616 4.9492437,14.8235294 L0.302521008,14.8235294 L0.302521008,16.0336134 L4.99159664,16.0336134 C5.03992837,16.6484732 5.15144075,17.2567226 5.32436975,17.8487395 L1.57915966,17.8487395 L1.57915966,19.0588235 L5.76,19.0588235 C6.87116275,21.6538322 9.03140223,23.6553702 11.703496,24.5656819 C14.3755898,25.4759937 17.3084716,25.2095475 19.7727731,23.832605 L21.9932773,26.0531092 C15.8821492,29.9209531 7.80080095,28.2015173 3.79361345,22.1808403 L2.7892437,22.852437 C7.21893213,29.5082802 16.1955958,31.3312001 22.8705882,26.9304202 L25.6598319,29.7196639 C26.7792528,30.8407555 28.595547,30.8421099 29.7166387,29.7226891 C30.8377303,28.6032682 30.8390847,26.786974 29.7196639,25.6658824 L29.7196639,25.6658824 Z M14.9203361,23.8870588 C11.3738414,23.8870588 8.17667154,21.7503774 6.82005269,18.4736092 C5.46343384,15.196841 6.21461579,11.4254984 8.72323173,8.91861374 C11.2318477,6.41172907 15.0037079,5.66315092 18.2795388,7.02203162 C21.5553697,8.38091233 23.6898425,11.5795566 23.6873971,15.1260504 C23.6773993,19.9628367 19.7571281,23.8804023 14.9203361,23.8870588 Z M28.8363025,28.8544538 C28.1846829,29.4829918 27.1524599,29.4829918 26.5008403,28.8544538 L20.8013445,23.154958 C21.7056228,22.4856952 22.489271,21.6672636 23.1186555,20.7347899 L28.8423529,26.4887395 C29.1534604,26.797693 29.3284209,27.2180187 29.3284209,27.6564706 C29.3284209,28.0949225 29.1534604,28.5152482 28.8423529,28.8242017 L28.8363025,28.8544538 Z"/><path d="M20.4988235,16.0033613 C20.2418767,15.4617095 19.8502249,14.9950606 19.3613445,14.6480672 L19.7606723,11.7015126 L19.7606723,11.7015126 L19.7606723,11.7015126 L19.7606723,11.6228571 L19.7606723,11.5381513 C19.7606723,11.5078992 19.7606723,11.4776471 19.7606723,11.4534454 C19.7606723,10.0194958 16.6023529,9.48705882 14.6117647,9.48705882 C12.6211765,9.48705882 9.46890756,10.0194958 9.46890756,11.4534454 C9.466117,11.4816117 9.466117,11.5099849 9.46890756,11.5381513 L9.46890756,11.6228571 C9.46555231,11.6489683 9.46555231,11.6754015 9.46890756,11.7015126 C9.46890756,11.7015126 9.46890756,11.7015126 9.46890756,11.7015126 L9.46890756,11.7015126 L10.4793277,19.2342857 C10.5579832,20.7347899 14.1761345,20.7771429 14.5936134,20.7771429 C15.3785922,20.781778 16.1617273,20.7006241 16.9290756,20.5351261 C17.1840277,20.4753806 17.4346765,20.3985689 17.6793277,20.3052101 C18.3388235,20.045042 18.6836975,19.7001681 18.7078992,19.2342857 L19.022521,16.8806723 C19.2213563,16.9237278 19.424123,16.9460322 19.627563,16.9472269 C19.9380884,16.9920151 20.2446552,16.8435218 20.4020168,16.5721008 C20.5128561,16.4045805 20.5479986,16.1981182 20.4988235,16.0033613 L20.4988235,16.0033613 Z M18.0423529,15.307563 C17.2678992,15.0110924 16.330084,14.6057143 15.4406723,14.1761345 C15.2988418,13.7586743 14.8657833,13.514632 14.4352221,13.6095312 C14.0046608,13.7044304 13.7143225,14.1079152 13.7611314,14.5463189 C13.8079404,14.9847226 14.1769235,15.3178108 14.6178151,15.3196639 C14.7172195,15.3203195 14.8158205,15.3018318 14.9082353,15.2652101 C15.8741004,15.7471765 16.8658649,16.1753925 17.8789916,16.5478992 L17.5462185,19.0406723 C17.4589396,19.0973179 17.365583,19.1439962 17.2678992,19.1798319 C17.070771,19.2530072 16.8685497,19.3116514 16.6628571,19.3552941 C15.9870854,19.501748 15.2971502,19.5727708 14.6057143,19.5670588 C13.6056118,19.625567 12.6059498,19.4451301 11.6894118,19.0406723 L10.8423529,12.7421849 C13.3086435,13.4117282 15.9088355,13.4117282 18.3751261,12.7421849 L18.0423529,15.307563 Z M14.6178151,12.0342857 C13.3190489,12.0985328 12.0210849,11.8925068 10.8060504,11.4292437 C12.0004113,10.8847974 13.3063767,10.6298232 14.6178151,10.685042 C15.9292535,10.6298232 17.2352189,10.8847974 18.4295798,11.4292437 C17.2147282,11.8931913 15.9166195,12.0992403 14.6178151,12.0342857 L14.6178151,12.0342857 Z"/></g></g><g stroke="none" stroke-width="1" fill="none" fill-rule="evenodd" id="icon-service-glue"><rect fill="#FFFFFF" x="0" y="0" width="48" height="48"/><polygon fill="url(#gradient-glue)" fill-rule="nonzero" points="0 0 48 0 48 48 0 48"/><g transform="translate(12.857143, 6.857143)" fill="#FFFFFF"><path d="M11.4110924,34.7983206 C11.2500884,34.7986339 11.094057,34.7425601 10.970084,34.6398319 L6.79428571,31.1944538 C6.57103391,31.0085632 6.48834756,30.7026237 6.58756303,30.4295798 C6.68620434,30.1567421 6.94517255,29.9749134 7.23529412,29.9747899 L9.30252101,29.9747899 L9.30252101,27.907563 L10.6806723,27.907563 L10.6806723,30.6638655 C10.6806723,31.0444315 10.3721626,31.3529412 9.99159664,31.3529412 L9.15092437,31.3529412 L11.4042017,33.2134454 L13.6161345,31.3529412 L12.7478992,31.3529412 C12.3673332,31.3529412 12.0588235,31.0444315 12.0588235,30.6638655 L12.0588235,27.907563 L13.4369748,27.907563 L13.4369748,29.9747899 L15.5042017,29.9747899 C15.7914588,29.9776242 16.046819,30.1583697 16.1449919,30.4283452 C16.2431648,30.6983206 16.1635501,31.0008753 15.9452101,31.187563 L11.8521008,34.6329412 C11.7290858,34.7381552 11.5729568,34.7967036 11.4110924,34.7983206 Z"/><path d="M17.5507563,8.95798319 L17.3853782,10.3361345 C18.5201274,10.4194541 19.6390655,10.6511183 20.7136134,11.0252101 C19.4939496,11.5557983 16.0554622,12.0588235 11.3697479,12.0588235 C6.54621849,12.0588235 3.10084034,11.507563 2.00521008,11.0252101 C2.99747899,10.6048739 5.8502521,10.0398319 10.6806723,9.99159664 L10.6806723,8.61344538 C1.30235294,8.70991597 0.344537815,10.3292437 0.344537815,11.0252101 C0.341471846,11.0710973 0.341471846,11.117138 0.344537815,11.1630252 C0.358539329,11.2474457 0.386483587,11.3289498 0.427226891,11.4042017 L0.565042017,11.6453782 C0.595496695,11.7002023 0.632520414,11.7511099 0.675294118,11.7969748 C0.745398056,11.8656425 0.821499136,11.927907 0.902689076,11.9830252 L8.61344538,24.007395 L8.61344538,25.8472269 C8.61250869,26.1355861 8.79122213,26.3940332 9.06134454,26.494958 C9.81457775,26.7803536 10.6125198,26.9296761 11.4179832,26.9359664 C12.1983242,26.9336377 12.9707224,26.7791581 13.6919328,26.4811765 C13.9519555,26.377632 14.123518,26.1270963 14.1260504,25.8472269 L14.1260504,24.0005042 L21.8023529,11.989916 L21.8023529,11.989916 C22.1543874,11.7934672 22.378872,11.4280272 22.394958,11.0252101 C22.394958,10.2878992 21.8230252,9.46789916 17.5507563,8.95798319 Z M12.8581513,23.4285714 C12.78651,23.5394806 12.7482413,23.6686374 12.7478992,23.8006723 L12.7478992,25.3579832 C11.8502992,25.6368957 10.8891966,25.6368957 9.99159664,25.3579832 L9.99159664,23.8006723 C9.99125446,23.6686374 9.95298578,23.5394806 9.88134454,23.4285714 L3.03882353,12.7410084 C5.78684404,13.2406038 8.57698824,13.4713849 11.3697479,13.430084 C14.1577073,13.4646521 16.9426332,13.2339209 19.6868908,12.7410084 L12.8581513,23.4285714 Z"/><path d="M15.5042017,10.6806723 L12.7478992,10.6806723 C12.3673332,10.6806723 12.0588235,10.3721626 12.0588235,9.99159664 L12.0588235,7.23529412 C12.0588235,6.85472816 12.3673332,6.54621849 12.7478992,6.54621849 L15.5042017,6.54621849 C15.8847676,6.54621849 16.1932773,6.85472816 16.1932773,7.23529412 L16.1932773,9.99159664 C16.1932773,10.3721626 15.8847676,10.6806723 15.5042017,10.6806723 Z M13.4369748,9.30252101 L14.8151261,9.30252101 L14.8151261,7.92436975 L13.4369748,7.92436975 L13.4369748,9.30252101 Z"/><path d="M14.1260504,4.4789916 L11.3697479,4.4789916 C10.9891819,4.4789916 10.6806723,4.17048193 10.6806723,3.78991597 L10.6806723,1.03361345 C10.6806723,0.653047483 10.9891819,0.344537815 11.3697479,0.344537815 L14.1260504,0.344537815 C14.5066164,0.344537815 14.8151261,0.653047483 14.8151261,1.03361345 L14.8151261,3.78991597 C14.8151261,4.17048193 14.5066164,4.4789916 14.1260504,4.4789916 Z M12.0588235,3.10084034 L13.4369748,3.10084034 L13.4369748,1.72268908 L12.0588235,1.72268908 L12.0588235,3.10084034 Z"/><path d="M8.61344538,7.92436975 L5.85714286,7.92436975 C5.4765769,7.92436975 5.16806723,7.61586008 5.16806723,7.23529412 L5.16806723,4.4789916 C5.16806723,4.09842563 5.4765769,3.78991597 5.85714286,3.78991597 L8.61344538,3.78991597 C8.99401134,3.78991597 9.30252101,4.09842563 9.30252101,4.4789916 L9.30252101,7.23529412 C9.30252101,7.61586008 8.99401134,7.92436975 8.61344538,7.92436975 Z M6.54621849,6.54621849 L7.92436975,6.54621849 L7.92436975,5.16806723 L6.54621849,5.16806723 L6.54621849,6.54621849 Z"/></g></g><g stroke="none" stroke-width="1" fill="none" fill-rule="evenodd" id="icon-service-lam"><polygon fill="url(#gradient-orange)" fill-rule="nonzero" points="0 0 48 0 48 48 0 48"/><g transform="translate(11, 10)" fill="#FFFFFF"><path d="M26.5889213,27.8937088 L19.6925948,27.8937088 C19.4772752,27.8931074 19.2813916,27.7706914 19.1888047,27.578869 L9.43766764,7.45673404 L5.31218659,7.45673404 C5.00303594,7.45673404 4.75241983,7.20943823 4.75241983,6.90438337 L4.75241983,0.828526005 C4.75241983,0.523471153 5.00303594,0.276175335 5.31218659,0.276175335 L13.9325948,0.276175335 C14.1479143,0.276776788 14.3437979,0.399192787 14.4363848,0.591015217 L24.1427405,20.7131501 L26.5889213,20.7131501 C26.8980719,20.7131501 27.148688,20.9604459 27.148688,21.2655008 L27.148688,27.3413582 C27.148688,27.646413 26.8980719,27.8937088 26.5889213,27.8937088 Z M20.0452478,26.7890075 L26.0291545,26.7890075 L26.0291545,21.8178515 L23.7900875,21.8178515 C23.5747679,21.81725 23.3788843,21.694834 23.2862974,21.5030116 L13.5799417,1.38087667 L5.87755102,1.38087667 L5.87755102,6.3520327 L9.79591837,6.3520327 C10.0112379,6.35263416 10.2071215,6.47505016 10.2997085,6.66687259 L20.0452478,26.7890075 Z"/><path d="M8.10542274,27.8937099 L0.82845481,27.8937099 C0.635054571,27.8940907 0.455155006,27.7959347 0.352653061,27.634104 C0.243858391,27.4681848 0.233185428,27.2575536 0.324664723,27.0817533 L7.93749271,11.3894708 C8.03007964,11.1976484 8.22596323,11.0752324 8.4412828,11.0746298 L8.4412828,11.0746298 C8.65533487,11.0742082 8.85089022,11.1942751 8.94507289,11.3839473 L12.5891545,18.7799228 C12.6634688,18.931712 12.6634688,19.1086786 12.5891545,19.2604679 L8.6148105,27.5457279 C8.53147526,27.7523199 8.33072312,27.8894609 8.10542274,27.8937099 L8.10542274,27.8937099 Z M1.72408163,26.7890075 L7.75276968,26.7890075 L11.4640233,19.0560981 L8.44688047,12.8973881 L1.72408163,26.7890075 Z"/></g></g><g stroke="none" stroke-width="1" fill="none" fill-rule="evenodd" id="icon-service-sns"><polygon fill="url(#gradient-sns)" fill-rule="nonzero" points="0 0 48 0 48 48 0 48"/><g transform="translate(6.857143, 8.571429)" fill="#FFFFFF"><path d="M27.7901299,23.6384416 L27.7901299,24.1558442 C27.7901299,24.0935065 27.7901299,24.0311688 27.7901299,23.9688312 C27.7775636,23.8590598 27.7775636,23.748213 27.7901299,23.6384416 L27.7901299,23.6384416 Z"/><path d="M19.6051948,11.2207792 L19.5428571,11.3392208 C19.5678154,11.3007712 19.5867361,11.258725 19.598961,11.2145455 L19.6051948,11.2207792 Z"/><path d="M14.2005195,9.05757391 C13.6457143,9.05757391 8.74597403,9.01402597 8.74597403,10.8654545 C8.7438301,10.9827418 8.76501986,11.0992855 8.80831169,11.2083117 C8.82653378,11.2531204 8.84734819,11.2968307 8.87064935,11.3392208 L12.2618182,18.8197403 L12.2618182,22.6909091 C12.2618182,23.0836364 12.4238961,23.3142857 12.7667532,23.3142857 L12.9288312,23.3142857 C13.7125247,23.1091801 14.440768,22.7322822 15.0607792,22.2109091 L15.4784416,21.9179221 C15.6592098,21.8049511 15.7697195,21.6074445 15.7714286,21.3942857 L15.7714286,18.8384416 L19.5428571,11.3579221 L19.5428571,11.3579221 C19.5678154,11.3194725 19.5867361,11.2774263 19.598961,11.2332468 C19.6422529,11.1242205 19.6634426,11.0076769 19.6612987,10.8903896 C19.6612987,9.01402597 14.7615584,9.05757391 14.2005195,9.05757391 Z M14.2005195,10.2046753 C16.401039,10.2046753 17.8161039,10.5911688 18.2898701,10.8654545 C17.8161039,11.1397403 16.4197403,11.5262338 14.2005195,11.5262338 C11.9812987,11.5262338 10.5911688,11.1397403 10.1174026,10.8654545 C10.5974026,10.5974026 12,10.2046753 14.2005195,10.2046753 Z M14.6555844,18.3085714 C14.6555844,18.3958442 14.6555844,18.5516883 14.6555844,18.7137662 L14.6555844,21.1511688 L14.4124675,21.3007792 C14.0571429,21.5064935 13.7454545,21.6498701 13.3901299,21.8368831 L13.3901299,18.7012987 C13.3886333,18.6158595 13.3717396,18.5313906 13.3402597,18.4519481 L10.6846753,12.3802597 C11.8389408,12.6374106 13.0179565,12.7670187 14.2005195,12.7667532 C15.348723,12.7658697 16.4936743,12.6446888 17.6166234,12.4051948 L14.6555844,18.3085714 Z"/><path d="M25.5584416,26.2877922 C23.1182592,28.0539489 20.1800425,28.9991553 17.1677922,28.987013 C10.3854545,28.987013 4.60051948,24.5797403 3.24155844,18.0779221 C4.49932636,18.0180834 5.56391168,17.129231 5.84727273,15.9023377 L9.02649351,15.9023377 L9.02649351,14.7241558 L5.85974026,14.7241558 C5.6123242,13.4628894 4.53770095,12.5322348 3.25402597,12.4675325 C4.38212696,7.89245649 7.68622619,4.16375023 12.0923456,2.49340779 C16.498465,0.823065355 21.4440467,1.42435019 25.3215584,4.10181818 L26.0322078,3.11688312 C21.7378924,0.149676116 16.24326,-0.470649087 11.3954912,1.46444787 C6.54772241,3.39954482 2.99061722,7.63307653 1.92,12.7418182 C0.932896899,13.199098 0.301171353,14.1879667 0.301171353,15.2758442 C0.301171353,16.3637216 0.932896899,17.3525903 1.92,17.8098701 C3.41748481,25.0404909 9.78373505,30.2277095 17.1677922,30.2337964 C20.4315682,30.2402168 23.6134536,29.2123238 26.2566234,27.2976623 L25.5584416,26.2877922 Z M1.55844156,15.2727273 C1.55271604,14.4800639 2.14291159,13.8093871 2.92987013,13.7142732 L3.11688312,13.7142732 C3.74777503,13.7117621 4.31794978,14.08986 4.56113229,14.6720054 C4.8043148,15.2541508 4.67252426,15.9254842 4.22730765,16.3724888 C3.78209103,16.8194934 3.11129125,16.9539736 2.52817587,16.7131263 C1.94506049,16.472279 1.56468037,15.9036242 1.56467532,15.2727273 L1.55844156,15.2727273 Z"/><path d="M3.02961039,13.7142857 L2.9361039,13.7142857 L3.02961039,13.7142857 Z"/><path d="M31.1688312,18.0779221 C32.6428447,18.078856 33.8661509,16.9388268 33.9689704,15.4684034 C34.0717898,13.99798 33.0190455,12.6987979 31.5592463,12.4945848 C30.0994471,12.2903718 28.7306038,13.2507951 28.425974,14.692987 L25.1844156,14.692987 L25.1844156,6.98181818 L26.8675325,6.98181818 C27.0563221,8.42101044 28.3118379,9.47848632 29.7621759,9.4198723 C31.2125139,9.36125828 32.3786008,8.20591564 32.4506373,6.75618235 C32.5226737,5.30644905 31.4768647,4.04119855 30.0394816,3.83909528 C28.6020985,3.63699201 27.2479353,4.56479439 26.9174026,5.97818182 L24.6233766,5.94701299 C24.46336,5.91295115 24.296661,5.95657638 24.173843,6.06465628 C24.0510249,6.17273618 23.9865594,6.33253568 24,6.49558442 L24,14.6742857 L19.2062338,14.6742857 L19.2062338,15.8275325 L24,15.8275325 L24,23.9812987 C24,24.3255801 24.2790952,24.6046753 24.6233766,24.6046753 L26.5807792,24.6046753 C26.8643557,26.0184294 28.1735338,26.9869377 29.6083906,26.8444521 C31.0432474,26.7019665 32.1363845,25.4949011 32.1363845,24.052987 C32.1363845,22.6110729 31.0432474,21.4040075 29.6083906,21.2615219 C28.1735338,21.1190363 26.8643557,22.0875446 26.5807792,23.5012987 L25.2218182,23.5012987 L25.1906494,15.8212987 L28.425974,15.8212987 C28.689181,17.1289264 29.8349914,18.0716159 31.1688312,18.0779221 Z M31.1688312,13.7142857 C32.0295347,13.7142857 32.7272727,14.4120238 32.7272727,15.2727273 C32.7272727,16.1334308 32.0295347,16.8311688 31.1688312,16.8311688 C30.3081277,16.8311688 29.6103896,16.1334308 29.6103896,15.2727273 C29.6103896,14.4120238 30.3081277,13.7142857 31.1688312,13.7142857 Z M29.6103896,5.04311688 C30.2387555,5.04566069 30.8035988,5.42680178 31.0411357,6.00854606 C31.2786727,6.59029034 31.1420368,7.25785835 30.6950374,7.69949371 C30.2480381,8.14112907 29.5788693,8.26969613 29.0000349,8.02515366 C28.4212006,7.7806112 28.046906,7.21120799 28.0519481,6.58285714 C28.0519347,6.16901677 28.2171807,5.77230541 28.5109782,5.48084892 C28.8047757,5.18939244 29.2027964,5.02732533 29.6166234,5.03064935 L29.6103896,5.04311688 Z M29.2987013,22.4415439 C30.1351427,22.4379775 30.8252457,23.0953453 30.8622859,23.9309738 C30.8993261,24.7666023 30.2700924,25.4824511 29.4366146,25.5528913 C28.6031369,25.6233315 27.8626884,25.0232393 27.7589582,24.1932468 L27.7589582,24.1932468 C27.7589582,24.1309091 27.7589582,24.0685714 27.7589582,24.0062338 C27.7587404,23.8950352 27.7712901,23.7841792 27.7963636,23.6758442 L27.7963636,23.6758442 C27.9497157,22.9654386 28.5720416,22.4541501 29.2987013,22.4415439 L29.2987013,22.4415439 Z"/></g></g></defs></g><style data-styled="true" data-styled-version="5.3.11">.eTwqxc{cursor:pointer;}/*!sc*/
data-styled.g110[id="sc-dkmUuB"]{content:"eTwqxc,"}/*!sc*/
.gYPmzl{stroke:#555;background-color:#555;stroke-width:1px;}/*!sc*/
data-styled.g111[id="sc-ejfMa-d"]{content:"gYPmzl,"}/*!sc*/
.eiVzL{stroke-width:0;stroke:none;fill:#f2f3f3;}/*!sc*/
data-styled.g112[id="sc-iEXKAA"]{content:"eiVzL,"}/*!sc*/
.IaWrc{font-size:10px;line-height:12.5;stroke:none;}/*!sc*/
data-styled.g113[id="sc-EgOXT"]{content:"IaWrc,"}/*!sc*/
.kFuXhN{fill:var(--color-text-form-secondary-1tn2nd,#687078);}/*!sc*/
data-styled.g139[id="sc-gvZAcH"]{content:"kFuXhN,"}/*!sc*/
.fSGazh{font-weight:400;font-size:12px;line-height:16px;font-family:Amazon Ember,Arial,Roboto,Arial,sans-serif;text-shadow:none;fill:var(--color-text-button-primary-default-h1el7o,#16191f);}/*!sc*/
data-styled.g140[id="sc-kRRyDe"]{content:"fSGazh,"}/*!sc*/
.heuMfl{fill:#fff9cc;stroke:var(--color-text-form-secondary-1tn2nd,#687078);stroke-width:0.6px;}/*!sc*/
data-styled.g141[id="sc-knuQbY"]{content:"heuMfl,"}/*!sc*/
.hxVEpV{fill:#fff9cc;stroke:var(--color-text-form-secondary-1tn2nd,#687078);stroke-width:0.6px;}/*!sc*/
data-styled.g142[id="sc-ERObt"]{content:"hxVEpV,"}/*!sc*/
.eOJZsw{stroke:var(--color-border-control-default-9i6y53,#687078);stroke-width:1px;fill:var(--color-background-container-content-ezsud2,#ffffff);opacity:0.5;}/*!sc*/
.node &gt; .new-look-state-node.has-errors &gt; .bounding-box &gt; .sc-dNsVcS{stroke:var(--color-border-status-error-16nl5k,#d13212);fill:var(--color-background-status-error-rv0ggo,#fdf3f1);}/*!sc*/
.selected &gt; .node &gt; .new-look-state-node &gt; .bounding-box &gt; .sc-dNsVcS{stroke:var(--color-border-status-info-kd0gvz,#0073bb);fill:var(--color-background-status-info-xdc3uu,#f1faff);}/*!sc*/
.selected &gt; .node &gt; .new-look-state-node.has-errors &gt; .bounding-box &gt; .sc-dNsVcS{stroke:var(--color-border-status-error-16nl5k,#d13212);fill:#fde0da;}/*!sc*/
data-styled.g143[id="sc-dNsVcS"]{content:"eOJZsw,"}/*!sc*/
</style><style>
.new-look-state-node &gt; rect:first-of-type {
  stroke: #687078;
  stroke-width: 1px;
  fill: #FFFFFF;
}

.new-look-state-node .error-icon circle {
 stroke-linejoin: round;
}

.new-look-state-node .error-icon circle, .new-look-state-node .error-icon path {
 stroke: var(--color-border-status-error-16nl5k, #d13212);
 fill: none;
 stroke-width: 2px;
}

.new-look-state-node.has-errors &gt; rect:first-of-type {
 stroke: var(--color-border-status-error-16nl5k, #d13212);
 fill: var(--color-background-status-error-rv0ggo, #fdf3f1);
}

.new-look-state-node.has-errors &gt; .bounding-box &gt; .new-look-state-node-sub &gt; rect {
  stroke: var(--color-border-status-error-16nl5k, #d13212);
  fill: var(--color-background-status-error-rv0ggo, #fdf3f1);
}

.new-look-state-node .handle path {
  stroke: var(--color-border-dropdown-item-hover-k0fqkn, #879596);
  stroke-width: 1px;
  fill: none;
}

.new-look-state-node {
  font-weight: 400;
  font-family: Amazon Ember, Arial, Roboto, Arial, sans-serif;
  text-shadow: none;
}

.new-look-state-node .line1 {
  fill: #687078;
  font-size: 12px;
}

.new-look-state-node .line2 {
  fill: #16191f;
}

.selected.node &gt; .new-look-state-node &gt; rect,
.selected.node &gt; .new-look-state-node &gt; .new-look-state-node &gt; rect,
.selected.node &gt; .new-look-state-node &gt; .bounding-box &gt; rect,
.selected.node &gt; .new-look-state-node.has-errors &gt; rect,
.selected.node &gt; .new-look-state-node.has-errors &gt; .bounding-box &gt; rect,
.selected.node &gt; .new-look-state-node.has-errors &gt; .new-look-state-node &gt; rect,
.selected.node &gt; .new-look-state-node &gt; .bounding-box &gt; .new-look-state-node-sub &gt; rect
 {
  stroke: var(--color-border-status-info-kd0gvz, #0073bb);
  fill: var(--color-background-status-info-xdc3uu, #f1faff);
  stroke-width: 1px;
}

.new-look-state-node-sub .item-source.not-specified {
  height: 15px;
  color: #687078;
  font-family: "Amazon Ember";
  font-size: 12px;
  letter-spacing: 0;
  line-height: 16px;
  font-weight: 400;
}
.new-look-state-node-sub .item-source .item-source_name{
  font-weight: 600;
}
.new-look-state-node-sub .item-source.not-specified .item-source_name{
  font-weight: 400;
}

.new-look-state-node-sub .item-source.not-specified {
  font-style: italic;
}

.new-look-state-node-sub &gt; rect,
.new-look-state-node &gt; .bounding-box &gt; rect {
  stroke: var(--color-border-control-default-9i6y53, #687078);
  fill: #ffffff;
}

.new-look-graph .drag-source {
  opacity: 0.2;
}

.new-look-graph .edge, .new-look-graph path.starting-connection {
  stroke-width: 1px;
  stroke: var(--color-text-form-secondary-1tn2nd, #687078);
  marker-end: url(#large-arrowhead);
}

.new-look-graph .edge-label {
  cursor: pointer;
}

.new-look-graph .edge-label rect {
  stroke-width: 1px;
  stroke: var(--color-border-control-default-9i6y53, #687078);
  fill: #fafafa;
}

.new-look-graph .edge-label.selected rect {
  stroke: var(--color-border-status-info-kd0gvz, #0073bb);
  fill: var(--color-background-status-info-xdc3uu, #f1faff);
  stroke-width: 0.6px;
}



.new-look-graph .edge-label .label {
  fill: var(--color-text-form-secondary-1tn2nd, #687078);
  font-family: Amazon Ember, Arial, Roboto, Arial, sans-serif;
}

/* centering the shape text */
@-moz-document url-prefix() {
  .new-look-graph .shape + text,
  .new-look-graph .edge-label text {
    transform: translateY(3.5px);
  }
}

.new-look-graph .edge path {
  marker-end: url(#large-arrowhead) !important;
}

.new-look-graph .edge.selected path{
  stroke: var(--color-border-status-info-kd0gvz, #0073bb);
  stroke-width: 1.1px;
}

.new-look-graph .edge.dragging-over path, .new-look-graph  g.dragging-over .starting-connection {
  stroke: #5C86FF;
  stroke-width: 2px;
}

.new-look-graph .edge.dragging-over path, .new-look-graph .dragging-over path.starting-connection {
  marker-end: url(#large-highlighted-arrowhead) !important;
}

.new-look-graph .edge.dragging-over .edge-label text {
  fill: #5C86FF;
}

#large-highlighted-arrowhead {
  fill: #5C86FF;
}

#large-highlighted-arrowhead path {
  stroke: none;
}

.new-look-graph .edge.drop-not-supported path, g.drop-not-supported .starting-connection {
  stroke: red;
}

.new-look-graph .edge.drop-not-supported .edge-label text {
  fill: red;
}

.new-look-graph .edge.drop-not-supported path {
  marker-end: url(#large-error-arrowhead) !important;
}

#large-error-arrowhead {
  fill: red;
}

.node-container * &gt; .icon  {
  &gt; rect {
    fill: #fafafa;
  }
  &gt; line {
    stroke: #d5dbdb;
  }
}


.node.Placeholder.dragging-over rect {
  stroke: var(--color-border-status-info-kd0gvz, #0073bb);
  fill: var(--color-background-status-info-xdc3uu, #f1faff);
  stroke-width: 2px;
}

.node.Placeholder.dragging-over .label {
  fill: var(--color-text-status-info-jqvvrd, #0073bb);
}

g.Placeholder rect {
  stroke-dasharray: 5 4;
  stroke: var(--color-border-dropdown-item-hover-k0fqkn, #879596);
  fill: #ffffff;
  stroke-width: 1px;
}

g.Placeholder .label {
  font-style: italic;
  fill: var(--color-text-input-placeholder-084e6q, #687078);
}

.node.Placeholder.drop-not-supported rect {
  stroke: red;
}

.node.Placeholder.drop-not-supported .label {
  fill: red;
}
</style><style>.line2 { font-size: 14px }</style></svg>