<!DOCTYPE svg PUBLIC "-//W3C//DTD SVG 1.1//EN" "https://www.w3.org/Graphics/SVG/1.1/DTD/svg11.dtd"><svg xmlns="http://www.w3.org/2000/svg" aria-label="Graph view" width="1232" height="854"><g transform="translate(12,19.84765625)"><g class="nodes"><g class="node-container" transform="translate(1043.9419078826904,18.44444465637207)"><g class="node anchor"><circle class="shape" x="-16.29210090637207" y="-8.44444465637207" r="26.29210090637207"/><text class="label"><tspan xml:space="preserve" text-anchor="middle" alignment-baseline="central">Start</tspan></text></g></g><g class="node-container" transform="translate(811.2245235443115,799.2222270965576)"><g class="node anchor"><circle class="shape" x="-12.173611640930176" y="-8.44444465637207" r="22.173611640930176"/><text class="label"><tspan xml:space="preserve" text-anchor="middle" alignment-baseline="central">End</tspan></text></g></g><g class="node-container" transform="translate(1043.9419078826904,80.33333396911621)"><g class="node state Task SucceededState" aria-label="State RunGlueJob" data-virtual-tab-id="1" tabindex="0" transform="translate(-8)"><rect class="shape step-status" rx="5" ry="5" x="-48.26388931274414" y="-18.44444465637207" width="112.52777862548828" height="36.88888931274414"/><text class="label" xml:space="preserve" text-anchor="middle" alignment-baseline="central">RunGlueJob</text><svg class="icon" width="16" height="16" x="43.26388931274414" y="-8"><circle stroke="black" stroke-width="1" fill="none" cx="8" cy="8" r="7"/><path stroke="black" stroke-width="1" fill="none" d="m5 8 2 2 3.521-3.521"/></svg></g></g><g class="node-container" transform="translate(933.6884212493896,142.22222328186035)"><g class="node state Choice SucceededState" aria-label="State CheckGlueJobStatus" data-virtual-tab-id="2" tabindex="-1" transform="translate(-8)"><rect class="shape step-status" rx="5" ry="5" x="-74.98404693603516" y="-18.44444465637207" width="165.9680938720703" height="36.88888931274414"/><text class="label" xml:space="preserve" text-anchor="middle" alignment-baseline="central">CheckGlueJobStatus</text><svg class="icon" width="16" height="16" x="69.98404693603516" y="-8"><circle stroke="black" stroke-width="1" fill="none" cx="8" cy="8" r="7"/><path stroke="black" stroke-width="1" fill="none" d="m5 8 2 2 3.521-3.521"/></svg></g></g><g class="node-container" transform="translate(1119.2183666229248,204.1111125946045)"><g class="node state Task NotYetStarted" aria-label="State HandleGlueJobFailure" data-virtual-tab-id="3" tabindex="-1" transform="translate(-8)"><rect class="shape step-status" rx="5" ry="5" x="-80.01692199707031" y="-18.44444465637207" width="176.03384399414062" height="36.88888931274414"/><text class="label" xml:space="preserve" text-anchor="middle" alignment-baseline="central">HandleGlueJobFailure</text><svg class="icon" width="16" height="16" x="75.01692199707031" y="-8"/></g></g><g class="node-container" transform="translate(903.6884212493896,204.1111125946045)"><g class="node state Pass SucceededState" aria-label="State InitiateArchiveProcess" data-virtual-tab-id="4" tabindex="-1" transform="translate(-8)"><rect class="shape step-status" rx="5" ry="5" x="-79.51302337646484" y="-18.44444465637207" width="175.0260467529297" height="36.88888931274414"/><text class="label" xml:space="preserve" text-anchor="middle" alignment-baseline="central">InitiateArchiveProcess</text><svg class="icon" width="16" height="16" x="74.51302337646484" y="-8"><circle stroke="black" stroke-width="1" fill="none" cx="8" cy="8" r="7"/><path stroke="black" stroke-width="1" fill="none" d="m5 8 2 2 3.521-3.521"/></svg></g></g><g class="node-container" transform="translate(903.6884212493896,266.00000190734863)"><g class="node state Task SucceededState" aria-label="State ArchiveProcessedFiles" data-virtual-tab-id="5" tabindex="-1" transform="translate(-8)"><rect class="shape step-status" rx="5" ry="5" x="-79.5794677734375" y="-18.44444465637207" width="175.158935546875" height="36.88888931274414"/><text class="label" xml:space="preserve" text-anchor="middle" alignment-baseline="central">ArchiveProcessedFiles</text><svg class="icon" width="16" height="16" x="74.5794677734375" y="-8"><circle stroke="black" stroke-width="1" fill="none" cx="8" cy="8" r="7"/><path stroke="black" stroke-width="1" fill="none" d="m5 8 2 2 3.521-3.521"/></svg></g></g><g class="node-container" transform="translate(585.051923751831,327.8888912200928)"><g class="node state Choice SucceededState" aria-label="State CheckArchiveCompletion" data-virtual-tab-id="6" tabindex="-1" transform="translate(-8)"><rect class="shape step-status" rx="5" ry="5" x="-89.3888931274414" y="-18.44444465637207" width="194.7777862548828" height="36.88888931274414"/><text class="label" xml:space="preserve" text-anchor="middle" alignment-baseline="central">CheckArchiveCompletion</text><svg class="icon" width="16" height="16" x="84.3888931274414" y="-8"><circle stroke="black" stroke-width="1" fill="none" cx="8" cy="8" r="7"/><path stroke="black" stroke-width="1" fill="none" d="m5 8 2 2 3.521-3.521"/></svg></g></g><g class="node-container" transform="translate(936.1769351959229,737.3333377838135)"><g class="node state Task NotYetStarted" aria-label="State HandleArchiveFailure" data-virtual-tab-id="7" tabindex="-1" transform="translate(-8)"><rect class="shape step-status" rx="5" ry="5" x="-77.55291748046875" y="-18.44444465637207" width="171.1058349609375" height="36.88888931274414"/><text class="label" xml:space="preserve" text-anchor="middle" alignment-baseline="central">HandleArchiveFailure</text><svg class="icon" width="16" height="16" x="72.55291748046875" y="-8"/></g></g><g class="node-container" transform="translate(479.0677261352539,389.7777805328369)"><g class="node state Task SucceededState" aria-label="State RunGlueCrawler" data-virtual-tab-id="8" tabindex="-1" transform="translate(-8)"><rect class="shape step-status" rx="5" ry="5" x="-61.63505935668945" y="-18.44444465637207" width="139.2701187133789" height="36.88888931274414"/><text class="label" xml:space="preserve" text-anchor="middle" alignment-baseline="central">RunGlueCrawler</text><svg class="icon" width="16" height="16" x="56.63505935668945" y="-8"><circle stroke="black" stroke-width="1" fill="none" cx="8" cy="8" r="7"/><path stroke="black" stroke-width="1" fill="none" d="m5 8 2 2 3.521-3.521"/></svg></g></g><g class="node-container" transform="translate(798.843599319458,389.7777805328369)"><g class="node state Pass NotYetStarted" aria-label="State ContinueArchiveOperation" data-virtual-tab-id="9" tabindex="-1" transform="translate(-8)"><rect class="shape step-status" rx="5" ry="5" x="-94.33333587646484" y="-18.44444465637207" width="204.6666717529297" height="36.88888931274414"/><text class="label" xml:space="preserve" text-anchor="middle" alignment-baseline="central">ContinueArchiveOperation</text><svg class="icon" width="16" height="16" x="89.33333587646484" y="-8"/></g></g><g class="node-container" transform="translate(302.2708435058594,451.66666984558105)"><g class="node state Wait SucceededState" aria-label="State WaitForCrawlerToFinish" data-virtual-tab-id="10" tabindex="-1" transform="translate(-8)"><rect class="shape step-status" rx="5" ry="5" x="-85.05555725097656" y="-18.44444465637207" width="186.11111450195312" height="36.88888931274414"/><text class="label" xml:space="preserve" text-anchor="middle" alignment-baseline="central">WaitForCrawlerToFinish</text><svg class="icon" width="16" height="16" x="80.05555725097656" y="-8"><circle stroke="black" stroke-width="1" fill="none" cx="8" cy="8" r="7"/><path stroke="black" stroke-width="1" fill="none" d="m5 8 2 2 3.521-3.521"/></svg></g></g><g class="node-container" transform="translate(700.8646087646484,625.4444484710693)"><g class="node state Task NotYetStarted" aria-label="State HandleCrawlerFailure" data-virtual-tab-id="11" tabindex="-1" transform="translate(-8)"><rect class="shape step-status" rx="5" ry="5" x="-78.32292175292969" y="-18.44444465637207" width="172.64584350585938" height="36.88888931274414"/><text class="label" xml:space="preserve" text-anchor="middle" alignment-baseline="central">HandleCrawlerFailure</text><svg class="icon" width="16" height="16" x="73.32292175292969" y="-8"/></g></g><g class="node-container" transform="translate(302.2708435058594,513.5555591583252)"><g class="node state Task SucceededState" aria-label="State CheckCrawlerStatus" data-virtual-tab-id="12" tabindex="-1" transform="translate(-8)"><rect class="shape step-status" rx="5" ry="5" x="-73.29005432128906" y="-18.44444465637207" width="162.58010864257812" height="36.88888931274414"/><text class="label" xml:space="preserve" text-anchor="middle" alignment-baseline="central">CheckCrawlerStatus</text><svg class="icon" width="16" height="16" x="68.29005432128906" y="-8"><circle stroke="black" stroke-width="1" fill="none" cx="8" cy="8" r="7"/><path stroke="black" stroke-width="1" fill="none" d="m5 8 2 2 3.521-3.521"/></svg></g></g><g class="node-container" transform="translate(287.2708435058594,625.4444484710693)"><g class="node state Parallel Container SucceededState" aria-label="State Parallel Athena Queries" data-virtual-tab-id="13" tabindex="-1" transform="translate(-287.2708435058594,-28.44444465637207)"><rect class="shape" rx="5" ry="5" x="0" y="0" width="574.5416870117188" height="116.88888931274414" transform="translate(0,-20)"/><g class="branches" transform="translate(20,40)"><g class="branch" transform="translate(0,0)"><g class="nodes"><g class="node-container" transform="translate(82.42361450195312,18.44444465637207)"><g class="node state Task SucceededState" aria-label="State Run Athena Query 1" data-virtual-tab-id="14" tabindex="-1" transform="translate(-8)"><rect class="shape step-status" rx="5" ry="5" x="-74.42361450195312" y="-18.44444465637207" width="164.84722900390625" height="36.88888931274414"/><text class="label" xml:space="preserve" text-anchor="middle" alignment-baseline="central">Run Athena Query 1</text><svg class="icon" width="16" height="16" x="69.42361450195312" y="-8"><circle stroke="black" stroke-width="1" fill="none" cx="8" cy="8" r="7"/><path stroke="black" stroke-width="1" fill="none" d="m5 8 2 2 3.521-3.521"/></svg></g></g></g><g class="edges"/></g><g class="branch" transform="translate(184.84722900390625,0)"><g class="nodes"><g class="node-container" transform="translate(82.42361450195312,18.44444465637207)"><g class="node state Task SucceededState" aria-label="State Run Athena Query 2" data-virtual-tab-id="15" tabindex="-1" transform="translate(-8)"><rect class="shape step-status" rx="5" ry="5" x="-74.42361450195312" y="-18.44444465637207" width="164.84722900390625" height="36.88888931274414"/><text class="label" xml:space="preserve" text-anchor="middle" alignment-baseline="central">Run Athena Query 2</text><svg class="icon" width="16" height="16" x="69.42361450195312" y="-8"><circle stroke="black" stroke-width="1" fill="none" cx="8" cy="8" r="7"/><path stroke="black" stroke-width="1" fill="none" d="m5 8 2 2 3.521-3.521"/></svg></g></g></g><g class="edges"/></g><g class="branch" transform="translate(369.6944580078125,0)"><g class="nodes"><g class="node-container" transform="translate(82.42361450195312,18.44444465637207)"><g class="node state Task SucceededState" aria-label="State Run Athena Query 3" data-virtual-tab-id="16" tabindex="-1" transform="translate(-8)"><rect class="shape step-status" rx="5" ry="5" x="-74.42361450195312" y="-18.44444465637207" width="164.84722900390625" height="36.88888931274414"/><text class="label" xml:space="preserve" text-anchor="middle" alignment-baseline="central">Run Athena Query 3</text><svg class="icon" width="16" height="16" x="69.42361450195312" y="-8"><circle stroke="black" stroke-width="1" fill="none" cx="8" cy="8" r="7"/><path stroke="black" stroke-width="1" fill="none" d="m5 8 2 2 3.521-3.521"/></svg></g></g></g><g class="edges"/></g></g><g class="title node state SucceededState" transform="translate(267.2708435058594,-40)"><rect class="shape step-status" rx="5" ry="5" x="0" y="0" width="197.80555725097656" height="40" transform="translate(-78.90277862548828)"/><text class="label" xml:space="preserve" text-anchor="middle" alignment-baseline="central" font-weight="600" x="40" y="10" transform="translate(-28)">Parallel Athena Queries</text><text class="desciption" xml:space="preserve" text-anchor="middle" alignment-baseline="central" x="40" y="30" transform="translate(-20)">3 Branches</text><svg class="icon" width="16" height="16" xml:space="preserve" text-anchor="middle" alignment-baseline="central" x="97.90277862548828" y="3"><circle stroke="black" stroke-width="1" fill="none" cx="8" cy="8" r="7"/><path stroke="black" stroke-width="1" fill="none" d="m5 8 2 2 3.521-3.521"/></svg></g><path class="path" marker-end="url(#arrowhead1)" d="M287.271,0L287.271,3.333C287.271,6.667,287.271,13.333,256.463,16.667C225.655,20,164.039,20,133.231,23.333C102.424,26.667,102.424,33.333,102.424,36.667L102.424,40" style="fill: none;"/><defs><marker id="arrowhead1" viewBox="0 0 10 10" refX="9" refY="5" markerUnits="strokeWidth" markerWidth="8" markerHeight="6" orient="auto"><path d="M 0 0 L 10 5 L 0 10 z"/></marker></defs><path class="path" marker-end="url(#arrowhead2)" d="M287.271,0L287.271,3.333C287.271,6.667,287.271,13.333,287.271,16.667C287.271,20,287.271,20,287.271,23.333C287.271,26.667,287.271,33.333,287.271,36.667L287.271,40" style="fill: none;"/><defs><marker id="arrowhead2" viewBox="0 0 10 10" refX="9" refY="5" markerUnits="strokeWidth" markerWidth="8" markerHeight="6" orient="auto"><path d="M 0 0 L 10 5 L 0 10 z"/></marker></defs><path class="path" marker-end="url(#arrowhead3)" d="M287.271,0L287.271,3.333C287.271,6.667,287.271,13.333,318.079,16.667C348.887,20,410.502,20,441.31,23.333C472.118,26.667,472.118,33.333,472.118,36.667L472.118,40" style="fill: none;"/><defs><marker id="arrowhead3" viewBox="0 0 10 10" refX="9" refY="5" markerUnits="strokeWidth" markerWidth="8" markerHeight="6" orient="auto"><path d="M 0 0 L 10 5 L 0 10 z"/></marker></defs></g></g><g class="node-container" transform="translate(272.2708435058594,737.3333377838135)"><g class="node state Task SucceededState" aria-label="State HandleValidationSuccess" data-virtual-tab-id="17" tabindex="-1" transform="translate(-8)"><rect class="shape step-status" rx="5" ry="5" x="-88.9210205078125" y="-18.44444465637207" width="193.842041015625" height="36.88888931274414"/><text class="label" xml:space="preserve" text-anchor="middle" alignment-baseline="central">HandleValidationSuccess</text><svg class="icon" width="16" height="16" x="83.9210205078125" y="-8"><circle stroke="black" stroke-width="1" fill="none" cx="8" cy="8" r="7"/><path stroke="black" stroke-width="1" fill="none" d="m5 8 2 2 3.521-3.521"/></svg></g></g><g class="node-container" transform="translate(651.573657989502,737.3333377838135)"><g class="node state Task NotYetStarted" aria-label="State HandleValidationFailure" data-virtual-tab-id="18" tabindex="-1" transform="translate(-8)"><rect class="shape step-status" rx="5" ry="5" x="-86.3519058227539" y="-18.44444465637207" width="188.7038116455078" height="36.88888931274414"/><text class="label" xml:space="preserve" text-anchor="middle" alignment-baseline="central">HandleValidationFailure</text><svg class="icon" width="16" height="16" x="81.3519058227539" y="-8"/></g></g></g><g class="edges"><g class="edge"><path class="path" marker-end="url(#arrowhead4)" d="M987.678,96.125L978.68,98.65C969.681,101.176,951.685,106.227,942.687,110.836C933.688,115.444,933.688,119.611,933.688,121.694L933.688,123.778" style="fill: none;"/><defs><marker id="arrowhead4" viewBox="0 0 10 10" refX="9" refY="5" markerUnits="strokeWidth" markerWidth="8" markerHeight="6" orient="auto"><path d="M 0 0 L 10 5 L 0 10 z"/></marker></defs></g><g class="edge"><path class="path" marker-end="url(#arrowhead5)" d="M1088.81,98.778L1093.878,100.861C1098.946,102.944,1109.082,107.111,1114.15,114.352C1119.218,121.593,1119.218,131.907,1119.218,142.222C1119.218,152.537,1119.218,162.852,1119.218,170.093C1119.218,177.333,1119.218,181.5,1119.218,183.583L1119.218,185.667" style="fill: none;"/><defs><marker id="arrowhead5" viewBox="0 0 10 10" refX="9" refY="5" markerUnits="strokeWidth" markerWidth="8" markerHeight="6" orient="auto"><path d="M 0 0 L 10 5 L 0 10 z"/></marker></defs></g><g class="edge"><path class="path" marker-end="url(#arrowhead6)" d="M1043.942,44.737L1043.942,45.512C1043.942,46.287,1043.942,47.838,1043.942,50.697C1043.942,53.556,1043.942,57.722,1043.942,59.806L1043.942,61.889" style="fill: none;"/><defs><marker id="arrowhead6" viewBox="0 0 10 10" refX="9" refY="5" markerUnits="strokeWidth" markerWidth="8" markerHeight="6" orient="auto"><path d="M 0 0 L 10 5 L 0 10 z"/></marker></defs></g><g class="edge"><path class="path" marker-end="url(#arrowhead7)" d="M915.807,160.667L913.787,162.75C911.767,164.833,907.728,169,905.708,173.167C903.688,177.333,903.688,181.5,903.688,183.583L903.688,185.667" style="fill: none;"/><defs><marker id="arrowhead7" viewBox="0 0 10 10" refX="9" refY="5" markerUnits="strokeWidth" markerWidth="8" markerHeight="6" orient="auto"><path d="M 0 0 L 10 5 L 0 10 z"/></marker></defs></g><g class="edge"><path class="path" marker-end="url(#arrowhead8)" d="M980.04,160.667L985.276,162.75C990.511,164.833,1000.982,169,1013.473,173.167C1025.964,177.333,1040.474,181.5,1047.73,183.583L1054.985,185.667" style="fill: none;"/><defs><marker id="arrowhead8" viewBox="0 0 10 10" refX="9" refY="5" markerUnits="strokeWidth" markerWidth="8" markerHeight="6" orient="auto"><path d="M 0 0 L 10 5 L 0 10 z"/></marker></defs></g><g class="edge"><path class="path" marker-end="url(#arrowhead9)" d="M903.688,222.556L903.688,224.639C903.688,226.722,903.688,230.889,903.688,235.056C903.688,239.222,903.688,243.389,903.688,245.472L903.688,247.556" style="fill: none;"/><defs><marker id="arrowhead9" viewBox="0 0 10 10" refX="9" refY="5" markerUnits="strokeWidth" markerWidth="8" markerHeight="6" orient="auto"><path d="M 0 0 L 10 5 L 0 10 z"/></marker></defs></g><g class="edge"><path class="path" marker-end="url(#arrowhead10)" d="M816.109,274.505L777.599,278.245C739.09,281.985,662.071,289.465,623.561,295.288C585.052,301.111,585.052,305.278,585.052,307.361L585.052,309.444" style="fill: none;"/><defs><marker id="arrowhead10" viewBox="0 0 10 10" refX="9" refY="5" markerUnits="strokeWidth" markerWidth="8" markerHeight="6" orient="auto"><path d="M 0 0 L 10 5 L 0 10 z"/></marker></defs></g><g class="edge"><path class="path" marker-end="url(#arrowhead11)" d="M923.053,284.444L925.24,286.528C927.428,288.611,931.802,292.778,933.99,300.019C936.177,307.259,936.177,317.574,936.177,327.889C936.177,338.204,936.177,348.519,936.177,358.833C936.177,369.148,936.177,379.463,936.177,389.778C936.177,400.093,936.177,410.407,936.177,420.722C936.177,431.037,936.177,441.352,936.177,451.667C936.177,461.981,936.177,472.296,936.177,482.611C936.177,492.926,936.177,503.241,936.177,513.556C936.177,523.87,936.177,534.185,936.177,552.833C936.177,571.481,936.177,598.463,936.177,625.444C936.177,652.426,936.177,679.407,936.177,694.981C936.177,710.556,936.177,714.722,936.177,716.806L936.177,718.889" style="fill: none;"/><defs><marker id="arrowhead11" viewBox="0 0 10 10" refX="9" refY="5" markerUnits="strokeWidth" markerWidth="8" markerHeight="6" orient="auto"><path d="M 0 0 L 10 5 L 0 10 z"/></marker></defs></g><g class="edge"><path class="path" marker-end="url(#arrowhead12)" d="M521.88,346.333L514.745,348.417C507.609,350.5,493.338,354.667,486.203,358.833C479.068,363,479.068,367.167,479.068,369.25L479.068,371.333" style="fill: none;"/><defs><marker id="arrowhead12" viewBox="0 0 10 10" refX="9" refY="5" markerUnits="strokeWidth" markerWidth="8" markerHeight="6" orient="auto"><path d="M 0 0 L 10 5 L 0 10 z"/></marker></defs></g><g class="edge"><path class="path" marker-end="url(#arrowhead13)" d="M682.441,341.985L701.841,344.793C721.242,347.601,760.043,353.217,779.443,358.109C798.844,363,798.844,367.167,798.844,369.25L798.844,371.333" style="fill: none;"/><defs><marker id="arrowhead13" viewBox="0 0 10 10" refX="9" refY="5" markerUnits="strokeWidth" markerWidth="8" markerHeight="6" orient="auto"><path d="M 0 0 L 10 5 L 0 10 z"/></marker></defs></g><g class="edge"><path class="path" marker-end="url(#arrowhead14)" d="M901.177,373.753L917.056,371.266C932.936,368.78,964.695,363.807,980.574,356.163C996.453,348.519,996.453,338.204,996.453,327.889C996.453,317.574,996.453,307.259,990.208,300.019C983.963,292.778,971.472,288.611,965.226,286.528L958.981,284.444" style="fill: none;"/><defs><marker id="arrowhead14" viewBox="0 0 10 10" refX="9" refY="5" markerUnits="strokeWidth" markerWidth="8" markerHeight="6" orient="auto"><path d="M 0 0 L 10 5 L 0 10 z"/></marker></defs></g><g class="edge"><path class="path" marker-end="url(#arrowhead15)" d="M409.433,401.966L391.572,405.092C373.712,408.218,337.991,414.47,320.131,419.68C302.271,424.889,302.271,429.056,302.271,431.139L302.271,433.222" style="fill: none;"/><defs><marker id="arrowhead15" viewBox="0 0 10 10" refX="9" refY="5" markerUnits="strokeWidth" markerWidth="8" markerHeight="6" orient="auto"><path d="M 0 0 L 10 5 L 0 10 z"/></marker></defs></g><g class="edge"><path class="path" marker-end="url(#arrowhead16)" d="M548.703,397.834L581.673,401.649C614.644,405.464,680.585,413.093,713.556,422.065C746.526,431.037,746.526,441.352,746.526,451.667C746.526,461.981,746.526,472.296,746.526,482.611C746.526,492.926,746.526,503.241,746.526,513.556C746.526,523.87,746.526,534.185,740.65,549.759C734.774,565.333,723.022,586.167,717.145,596.583L711.269,607" style="fill: none;"/><defs><marker id="arrowhead16" viewBox="0 0 10 10" refX="9" refY="5" markerUnits="strokeWidth" markerWidth="8" markerHeight="6" orient="auto"><path d="M 0 0 L 10 5 L 0 10 z"/></marker></defs></g><g class="edge"><path class="path" marker-end="url(#arrowhead17)" d="M302.271,470.111L302.271,472.194C302.271,474.278,302.271,478.444,302.271,482.611C302.271,486.778,302.271,490.944,302.271,493.028L302.271,495.111" style="fill: none;"/><defs><marker id="arrowhead17" viewBox="0 0 10 10" refX="9" refY="5" markerUnits="strokeWidth" markerWidth="8" markerHeight="6" orient="auto"><path d="M 0 0 L 10 5 L 0 10 z"/></marker></defs></g><g class="edge"><path class="path" marker-end="url(#arrowhead18)" d="M293.33,532L292.32,534.083C291.31,536.167,289.291,540.333,288.281,544.5C287.271,548.667,287.271,552.833,287.271,554.917L287.271,557" style="fill: none;"/></g><g class="edge"><path class="path" marker-end="url(#arrowhead19)" d="M383.561,525.72L404.479,528.85C425.397,531.98,467.232,538.24,512.832,551.787C558.432,565.333,607.796,586.167,632.479,596.583L657.161,607" style="fill: none;"/><defs><marker id="arrowhead19" viewBox="0 0 10 10" refX="9" refY="5" markerUnits="strokeWidth" markerWidth="8" markerHeight="6" orient="auto"><path d="M 0 0 L 10 5 L 0 10 z"/></marker></defs></g><g class="edge"><path class="path" marker-end="url(#arrowhead20)" d="M274.587,693.889L274.201,695.972C273.815,698.056,273.043,702.222,272.657,706.389C272.271,710.556,272.271,714.722,272.271,716.806L272.271,718.889" style="fill: none;"/><defs><marker id="arrowhead20" viewBox="0 0 10 10" refX="9" refY="5" markerUnits="strokeWidth" markerWidth="8" markerHeight="6" orient="auto"><path d="M 0 0 L 10 5 L 0 10 z"/></marker></defs></g><g class="edge"><path class="path" marker-end="url(#arrowhead21)" d="M420.454,693.889L424.507,695.972C428.561,698.056,436.669,702.222,459.464,707.11C482.258,711.998,519.74,717.606,538.481,720.41L557.222,723.215" style="fill: none;"/><defs><marker id="arrowhead21" viewBox="0 0 10 10" refX="9" refY="5" markerUnits="strokeWidth" markerWidth="8" markerHeight="6" orient="auto"><path d="M 0 0 L 10 5 L 0 10 z"/></marker></defs></g><g class="edge"><path class="path" marker-end="url(#arrowhead22)" d="M272.271,755.778L272.271,757.861C272.271,759.944,272.271,764.111,358.407,771.14C444.543,778.169,616.815,788.06,702.951,793.006L789.087,797.951" style="fill: none;"/><defs><marker id="arrowhead22" viewBox="0 0 10 10" refX="9" refY="5" markerUnits="strokeWidth" markerWidth="8" markerHeight="6" orient="auto"><path d="M 0 0 L 10 5 L 0 10 z"/></marker></defs></g><g class="edge"><path class="path" marker-end="url(#arrowhead23)" d="M1119.218,222.556L1119.218,224.639C1119.218,226.722,1119.218,230.889,1119.218,238.13C1119.218,245.37,1119.218,255.685,1119.218,266C1119.218,276.315,1119.218,286.63,1119.218,296.944C1119.218,307.259,1119.218,317.574,1119.218,327.889C1119.218,338.204,1119.218,348.519,1119.218,358.833C1119.218,369.148,1119.218,379.463,1119.218,389.778C1119.218,400.093,1119.218,410.407,1119.218,420.722C1119.218,431.037,1119.218,441.352,1119.218,451.667C1119.218,461.981,1119.218,472.296,1119.218,482.611C1119.218,492.926,1119.218,503.241,1119.218,513.556C1119.218,523.87,1119.218,534.185,1119.218,552.833C1119.218,571.481,1119.218,598.463,1119.218,625.444C1119.218,652.426,1119.218,679.407,1119.218,698.056C1119.218,716.704,1119.218,727.019,1119.218,737.333C1119.218,747.648,1119.218,757.963,1071.563,767.908C1023.908,777.854,928.597,787.43,880.942,792.218L833.287,797.006" style="fill: none;"/><defs><marker id="arrowhead23" viewBox="0 0 10 10" refX="9" refY="5" markerUnits="strokeWidth" markerWidth="8" markerHeight="6" orient="auto"><path d="M 0 0 L 10 5 L 0 10 z"/></marker></defs></g><g class="edge"><path class="path" marker-end="url(#arrowhead24)" d="M936.177,755.778L936.177,757.861C936.177,759.944,936.177,764.111,918.939,770.463C901.701,776.816,867.224,785.354,849.986,789.623L832.748,793.892" style="fill: none;"/><defs><marker id="arrowhead24" viewBox="0 0 10 10" refX="9" refY="5" markerUnits="strokeWidth" markerWidth="8" markerHeight="6" orient="auto"><path d="M 0 0 L 10 5 L 0 10 z"/></marker></defs></g><g class="edge"><path class="path" marker-end="url(#arrowhead25)" d="M700.865,643.889L700.865,654.306C700.865,664.722,700.865,685.556,697.546,698.056C694.228,710.556,687.591,714.722,684.272,716.806L680.954,718.889" style="fill: none;"/><defs><marker id="arrowhead25" viewBox="0 0 10 10" refX="9" refY="5" markerUnits="strokeWidth" markerWidth="8" markerHeight="6" orient="auto"><path d="M 0 0 L 10 5 L 0 10 z"/></marker></defs></g><g class="edge"><path class="path" marker-end="url(#arrowhead26)" d="M651.574,755.778L651.574,757.861C651.574,759.944,651.574,764.111,674.554,770.649C697.534,777.186,743.495,786.095,766.476,790.549L789.456,795.003" style="fill: none;"/><defs><marker id="arrowhead26" viewBox="0 0 10 10" refX="9" refY="5" markerUnits="strokeWidth" markerWidth="8" markerHeight="6" orient="auto"><path d="M 0 0 L 10 5 L 0 10 z"/></marker></defs></g></g></g><style xmlns="http://www.w3.org/1999/xhtml">
  .link &gt; rect {
    fill: #0073BB;
  }

  .link .label {
    fill: #FFFFFF;
  }

  .node &gt; .shape {
    stroke: #555555;
    stroke-width: 0.6px;
    fill: #FFFFFF;
  }

  path {
    stroke: #555;
    background-color: #555;
    stroke-width: 1px;
  }

  .node.state.NotYetStarted &gt; .shape,
  .node.state.Container &gt; .shape {
    stroke-dasharray: 5 2;
  }

  .node.state.FailedState &gt; .shape,
  rect.legend.FailedState {
    fill: #DE322F;
  }

  .node.state.CaughtErrorState &gt; .shape,
  rect.legend.CaughtErrorState {
    fill: #FFA500;
  }

  .node.state.SucceededState &gt; .shape,
  rect.legend.SucceededState {
    fill: #2BD62E;
  }

  .node.state.InProgressState &gt; .shape,
  rect.legend.InProgressState {
    fill: #53c9ed;
  }

  .node.state.CancelledState &gt; .shape,
  rect.legend.CancelledState {
    fill: #dddddd;
  }

  .node.anchor &gt; .shape {
    fill: #FFDA75;
  }

  .node.state.hovered:not(.selected):not(.NotYetStarted) &gt; .shape,
  .node.selected &gt; .shape {
    stroke: #555555;
    stroke-width: 2px;
  }

  .node.state.Container.Failed &gt; .shape {
    fill: #EE9592;
  }

  .node.state.Container.CaughtError &gt; .shape {
    fill: #FFD27F;
  }

  .node.state.Container.Succeeded &gt; .shape {
    fill: #91EA9A;
  }

  .node.state.Container.InProgress &gt; .shape {
    fill :#A9E4F7;
  }

  .node.state.Container.Cancelled &gt; .shape {
    fill: #EEEEEE;
  }

  marker {
    fill: #555555;
  }

  .node.anchor,
  .node.state.NotYetStarted {
    cursor: default;
  }

  .node.state {
    cursor: default;
  }

  tspan .label {
    font-weight: normal;
    font-size: 12px;
    text-shadow: none;
  }
</style></svg>